<?xml version="1.0" encoding="iso-8859-1"?>
<!-- Generator: Adobe Illustrator 19.0.0, SVG Export Plug-In . SVG Version: 6.00 Build 0)  -->
<svg version="1.1" id="Capa_1" xmlns="http://www.w3.org/2000/svg" xmlns:xlink="http://www.w3.org/1999/xlink" x="0px" y="0px"
	 viewBox="0 0 58 58" style="enable-background:new 0 0 58 58;" xml:space="preserve">
<path style="fill:#BDC3C7;" d="M9,33H0.778C0.348,33,0,32.652,0,32.222v-6.445C0,25.348,0.348,25,0.778,25H9V33z"/>
<rect x="17" y="25" style="fill:#BDC3C7;" width="24" height="8"/>
<g>
	<circle style="fill:#ECF0F1;" cx="23" cy="26" r="1"/>
	<circle style="fill:#ECF0F1;" cx="27" cy="26" r="1"/>
	<circle style="fill:#ECF0F1;" cx="25" cy="28" r="1"/>
	<circle style="fill:#ECF0F1;" cx="29" cy="28" r="1"/>
	<circle style="fill:#ECF0F1;" cx="31" cy="26" r="1"/>
	<circle style="fill:#ECF0F1;" cx="35" cy="26" r="1"/>
	<circle style="fill:#ECF0F1;" cx="23" cy="30" r="1"/>
	<circle style="fill:#ECF0F1;" cx="27" cy="30" r="1"/>
	<circle style="fill:#ECF0F1;" cx="31" cy="30" r="1"/>
	<circle style="fill:#ECF0F1;" cx="35" cy="30" r="1"/>
	<circle style="fill:#ECF0F1;" cx="33" cy="28" r="1"/>
	<circle style="fill:#ECF0F1;" cx="25" cy="32" r="1"/>
	<circle style="fill:#ECF0F1;" cx="29" cy="32" r="1"/>
	<circle style="fill:#ECF0F1;" cx="33" cy="32" r="1"/>
</g>
<g>
	<path style="fill:#ECF0F1;" d="M3,32c-0.552,0-1,0.447-1,1v2c0,0.553,0.448,1,1,1s1-0.447,1-1v-2C4,32.447,3.552,32,3,32z"/>
	<path style="fill:#ECF0F1;" d="M6,32c-0.552,0-1,0.447-1,1v2c0,0.553,0.448,1,1,1s1-0.447,1-1v-2C7,32.447,6.552,32,6,32z"/>
	<path style="fill:#ECF0F1;" d="M3,22c-0.552,0-1,0.447-1,1v2c0,0.553,0.448,1,1,1s1-0.447,1-1v-2C4,22.447,3.552,22,3,22z"/>
	<path style="fill:#ECF0F1;" d="M6,22c-0.552,0-1,0.447-1,1v2c0,0.553,0.448,1,1,1s1-0.447,1-1v-2C7,22.447,6.552,22,6,22z"/>
	<rect x="2" y="27" style="fill:#ECF0F1;" width="2" height="4"/>
	<rect x="5" y="27" style="fill:#ECF0F1;" width="2" height="4"/>
</g>
<rect x="9" y="17" style="fill:#546A79;" width="4" height="24"/>
<rect x="13" y="14" style="fill:#38454F;" width="4" height="30"/>
<path style="fill:#BDC3C7;" d="M49,25h8.222C57.652,25,58,25.348,58,25.778v6.445C58,32.652,57.652,33,57.222,33H49V25z"/>
<g>
	<path style="fill:#ECF0F1;" d="M55,22c-0.552,0-1,0.447-1,1v2c0,0.553,0.448,1,1,1s1-0.447,1-1v-2C56,22.447,55.552,22,55,22z"/>
	<path style="fill:#ECF0F1;" d="M52,22c-0.552,0-1,0.447-1,1v2c0,0.553,0.448,1,1,1s1-0.447,1-1v-2C53,22.447,52.552,22,52,22z"/>
	<path style="fill:#ECF0F1;" d="M55,32c-0.552,0-1,0.447-1,1v2c0,0.553,0.448,1,1,1s1-0.447,1-1v-2C56,32.447,55.552,32,55,32z"/>
	<path style="fill:#ECF0F1;" d="M52,32c-0.552,0-1,0.447-1,1v2c0,0.553,0.448,1,1,1s1-0.447,1-1v-2C53,32.447,52.552,32,52,32z"/>
	<rect x="54" y="27" style="fill:#ECF0F1;" width="2" height="4"/>
	<rect x="51" y="27" style="fill:#ECF0F1;" width="2" height="4"/>
</g>
<rect x="45" y="17" style="fill:#546A79;" width="4" height="24"/>
<rect x="41" y="14" style="fill:#38454F;" width="4" height="30"/>
<g>
</g>
<g>
</g>
<g>
</g>
<g>
</g>
<g>
</g>
<g>
</g>
<g>
</g>
<g>
</g>
<g>
</g>
<g>
</g>
<g>
</g>
<g>
</g>
<g>
</g>
<g>
</g>
<g>
</g>
</svg>
