<?xml version="1.0" encoding="iso-8859-1"?>
<!-- Generator: Adobe Illustrator 19.0.0, SVG Export Plug-In . SVG Version: 6.00 Build 0)  -->
<svg version="1.1" id="Capa_1" xmlns="http://www.w3.org/2000/svg" xmlns:xlink="http://www.w3.org/1999/xlink" x="0px" y="0px"
	 viewBox="0 0 57.647 57.647" style="enable-background:new 0 0 57.647 57.647;" xml:space="preserve">
<path style="fill:#82614A;" d="M10.248,26.647c-0.125,7.063,4,10,4,10c-1.75-7.583,4-11,4-11
	c-0.646-8.557-0.167-14.136,0.862-17.734C12.253,8.995,6.652,13.545,4.369,19.605C7,18.84,10.322,22.463,10.248,26.647z"/>
<circle style="fill:#D4945E;" cx="15.248" cy="12.647" r="1"/>
<circle style="fill:#D4945E;" cx="9.248" cy="17.647" r="1"/>
<circle style="fill:#D4945E;" cx="12.248" cy="14.647" r="1"/>
<circle style="fill:#D4945E;" cx="12.248" cy="20.647" r="1"/>
<circle style="fill:#D4945E;" cx="15.248" cy="17.647" r="1"/>
<circle style="fill:#D4945E;" cx="13.248" cy="25.647" r="1"/>
<circle style="fill:#D4945E;" cx="15.248" cy="22.647" r="1"/>
<path style="fill:#D4945E;" d="M54.942,9.007c-0.811-3.057-4.303-4.457-6.895-2.939c0.132,0.182,0.215,0.403,0.199,0.645
	c-1.187,17.79-3.97,24.088-4.088,24.348c-0.167,0.368-0.53,0.586-0.911,0.586c-0.138,0-0.278-0.028-0.413-0.09
	c-0.502-0.229-0.725-0.819-0.497-1.322c0.04-0.091,2.761-6.365,3.913-23.654c0.027-0.419,0.317-0.752,0.69-0.877
	c-0.699-1.73-2.761-5.012-7.825-2.519c0.086,0.16,0.144,0.335,0.132,0.529c-1.182,17.719-2.963,23.958-3.038,24.215
	c-0.128,0.436-0.526,0.719-0.959,0.719c-0.093,0-0.188-0.014-0.281-0.041c-0.529-0.154-0.834-0.709-0.68-1.239
	c0.018-0.062,1.8-6.353,2.962-23.786c0.024-0.362,0.253-0.65,0.554-0.806c-1.006-1.684-3.773-4.871-8.813-0.768
	c0.045,0.052,0.098,0.094,0.132,0.156c3.349,6.041-1.696,23.996-1.913,24.758c-0.125,0.439-0.525,0.727-0.961,0.727
	c-0.091,0-0.183-0.012-0.274-0.038c-0.531-0.151-0.84-0.704-0.688-1.235c1.411-4.967,4.536-18.823,2.087-23.242
	c-0.165-0.297-0.145-0.634-0.005-0.918c-2.778-1.119-11.069-2.403-9.12,23.434c0,0-5.75,3.417-4,11c0,0-4.125-2.938-4-10
	s-9-12.5-9,2c0,14.124,3.66,18.149,16.821,28.11c0.386,0.292,0.777,0.587,1.179,0.89v-5c0-0.553,0.447-1,1-1s1,0.447,1,1v5h2v-5
	c0-0.553,0.447-1,1-1s1,0.447,1,1v5h2v-5c0-0.553,0.447-1,1-1s1,0.447,1,1v5h2v-5c0-0.553,0.447-1,1-1s1,0.447,1,1v5h2v-5
	c0-0.553,0.447-1,1-1s1,0.447,1,1v5h2v-5c0-0.553,0.447-1,1-1s1,0.447,1,1v5c0,0,5.654-6.035,10.055-15.576l-0.434-0.189
	c-0.508-0.218-0.742-0.806-0.524-1.313c0.219-0.509,0.807-0.74,1.313-0.524l0.453,0.198C55.704,31.748,58.076,20.822,54.942,9.007z
	 M17.492,54.401c-0.05,0.007-0.101,0.011-0.149,0.011c-0.486,0-0.913-0.355-0.988-0.852c-0.058-0.384-0.093-0.775-0.104-1.162
	c-0.015-0.553,0.42-1.013,0.972-1.028c0.559,0.014,1.013,0.42,1.028,0.972c0.008,0.311,0.036,0.617,0.082,0.922
	C18.415,53.81,18.039,54.318,17.492,54.401z M19.497,47.927c-0.166,0.271-0.316,0.547-0.451,0.829
	c-0.172,0.358-0.53,0.568-0.903,0.568c-0.145,0-0.291-0.031-0.431-0.098c-0.498-0.238-0.709-0.835-0.471-1.334
	c0.164-0.343,0.348-0.678,0.549-1.009c0.288-0.472,0.903-0.62,1.375-0.332C19.635,46.84,19.785,47.455,19.497,47.927z M22.803,44.41
	c-0.267,0.2-0.523,0.405-0.771,0.616c-0.188,0.16-0.419,0.238-0.648,0.238c-0.282,0-0.563-0.119-0.762-0.352
	c-0.357-0.421-0.307-1.052,0.113-1.41c0.278-0.236,0.566-0.467,0.866-0.692c0.441-0.33,1.068-0.242,1.4,0.199
	C23.334,43.451,23.245,44.078,22.803,44.41z M27.136,41.957c-0.312,0.132-0.617,0.27-0.917,0.412
	c-0.138,0.065-0.284,0.097-0.428,0.097c-0.374,0-0.733-0.211-0.904-0.571c-0.237-0.498-0.024-1.095,0.475-1.332
	c0.325-0.154,0.656-0.304,0.995-0.447c0.504-0.213,1.095,0.021,1.311,0.531C27.882,41.155,27.645,41.741,27.136,41.957z
	 M31.949,40.432c-0.332,0.073-0.661,0.152-0.984,0.236c-0.084,0.022-0.169,0.032-0.252,0.032c-0.444,0-0.851-0.299-0.967-0.749
	c-0.139-0.534,0.182-1.08,0.717-1.219c0.347-0.09,0.697-0.175,1.053-0.254c0.544-0.119,1.073,0.222,1.193,0.76
	C32.828,39.778,32.488,40.312,31.949,40.432z M36.975,39.721c-0.339,0.021-0.675,0.048-1.009,0.081
	c-0.033,0.003-0.067,0.005-0.1,0.005c-0.508,0-0.943-0.386-0.994-0.901c-0.055-0.55,0.347-1.039,0.896-1.094
	c0.357-0.035,0.717-0.063,1.079-0.087c0.538-0.033,1.026,0.383,1.062,0.935C37.945,39.21,37.527,39.686,36.975,39.721z
	 M42.143,39.762c-0.027,0-0.055-0.001-0.083-0.003c-0.333-0.028-0.671-0.051-1.013-0.067c-0.552-0.027-0.977-0.497-0.949-1.049
	c0.028-0.551,0.507-0.976,1.049-0.949c0.363,0.019,0.723,0.043,1.077,0.071c0.551,0.046,0.96,0.528,0.915,1.079
	C43.095,39.366,42.659,39.762,42.143,39.762z M48.268,39.871c-0.116,0.45-0.522,0.749-0.967,0.749c-0.083,0-0.168-0.01-0.252-0.032
	c-0.323-0.084-0.649-0.161-0.98-0.234c-0.539-0.118-0.881-0.65-0.763-1.19c0.116-0.541,0.649-0.88,1.19-0.763
	c0.356,0.077,0.708,0.162,1.055,0.252C48.087,38.791,48.407,39.337,48.268,39.871z"/>
<path style="fill:#82614A;" d="M46.25,6.581c-1.152,17.289-3.873,23.563-3.913,23.654c-0.228,0.503-0.005,1.094,0.497,1.322
	c0.135,0.062,0.275,0.09,0.413,0.09c0.381,0,0.744-0.218,0.911-0.586c0.118-0.26,2.901-6.558,4.088-24.348
	c0.016-0.242-0.067-0.463-0.199-0.645c-0.235,0.138-0.466,0.291-0.684,0.478c-0.038,0.033-0.076,0.066-0.115,0.1
	c0,0-0.086-0.394-0.308-0.944C46.566,5.829,46.277,6.162,46.25,6.581z"/>
<path style="fill:#82614A;" d="M37.25,3.581c-1.162,17.434-2.944,23.725-2.962,23.786c-0.154,0.53,0.15,1.085,0.68,1.239
	c0.094,0.027,0.188,0.041,0.281,0.041c0.433,0,0.831-0.283,0.959-0.719c0.075-0.257,1.856-6.496,3.038-24.215
	c0.013-0.194-0.046-0.369-0.132-0.529c-0.281,0.138-0.567,0.287-0.866,0.462c0,0-0.144-0.369-0.444-0.872
	C37.503,2.931,37.274,3.219,37.25,3.581z"/>
<path style="fill:#82614A;" d="M27.373,3.132c2.449,4.419-0.676,18.275-2.087,23.242c-0.151,0.531,0.157,1.084,0.688,1.235
	c0.092,0.026,0.184,0.038,0.274,0.038c0.436,0,0.836-0.287,0.961-0.727c0.217-0.762,5.262-18.717,1.913-24.758
	c-0.034-0.062-0.088-0.104-0.132-0.156c-0.243,0.198-0.489,0.408-0.743,0.64c0,0-0.334-0.214-0.88-0.434
	C27.228,2.497,27.208,2.835,27.373,3.132z"/>
<path style="fill:#A5714A;" d="M31.247,16.647c-0.219,0-0.439-0.071-0.624-0.219l-5-4c-0.431-0.346-0.501-0.975-0.156-1.406
	c0.346-0.428,0.974-0.501,1.406-0.156l5,4c0.431,0.346,0.501,0.975,0.156,1.406C31.831,16.519,31.541,16.647,31.247,16.647z"/>
<path style="fill:#A5714A;" d="M26.248,17.647c-0.256,0-0.512-0.098-0.707-0.293c-0.391-0.391-0.391-1.023,0-1.414l5-5
	c0.391-0.391,1.023-0.391,1.414,0s0.391,1.023,0,1.414l-5,5C26.759,17.55,26.504,17.647,26.248,17.647z"/>
<path style="fill:#A5714A;" d="M40.248,14.647c-0.256,0-0.512-0.098-0.707-0.293l-4-4c-0.391-0.391-0.391-1.023,0-1.414
	s1.023-0.391,1.414,0l4,4c0.391,0.391,0.391,1.023,0,1.414C40.759,14.55,40.504,14.647,40.248,14.647z"/>
<path style="fill:#A5714A;" d="M35.249,13.647c-0.34,0-0.671-0.173-0.858-0.485c-0.284-0.474-0.131-1.088,0.343-1.372l5-3
	c0.474-0.284,1.088-0.13,1.372,0.343c0.284,0.474,0.131,1.088-0.343,1.372l-5,3C35.601,13.602,35.423,13.647,35.249,13.647z"/>
<path style="fill:#A5714A;" d="M48.249,20.647c-0.294,0-0.584-0.128-0.782-0.375l-4-5c-0.345-0.432-0.274-1.061,0.156-1.406
	c0.433-0.346,1.06-0.274,1.406,0.156l4,5c0.345,0.432,0.274,1.061-0.156,1.406C48.688,20.576,48.467,20.647,48.249,20.647z"/>
<path style="fill:#A5714A;" d="M43.249,20.647c-0.323,0-0.641-0.156-0.833-0.445c-0.307-0.46-0.183-1.08,0.277-1.387l6-4
	c0.461-0.307,1.08-0.182,1.387,0.277c0.307,0.46,0.183,1.08-0.277,1.387l-6,4C43.631,20.593,43.439,20.647,43.249,20.647z"/>
<path style="fill:#B5896B;" d="M21.958,33.185c0,0-13.5,10.5,11,14s-1-14-1-14S26.292,31.018,21.958,33.185z"/>
<path style="fill:#82614A;" d="M21.602,42.811c-0.3,0.226-0.588,0.456-0.866,0.692c-0.42,0.358-0.471,0.989-0.113,1.41
	c0.198,0.232,0.479,0.352,0.762,0.352c0.229,0,0.46-0.078,0.648-0.238c0.247-0.211,0.504-0.416,0.771-0.616
	c0.441-0.332,0.53-0.959,0.199-1.4C22.671,42.568,22.044,42.48,21.602,42.811z"/>
<path style="fill:#82614A;" d="M26.357,40.115c-0.339,0.144-0.67,0.293-0.995,0.447c-0.499,0.237-0.712,0.834-0.475,1.332
	c0.171,0.36,0.53,0.571,0.904,0.571c0.144,0,0.29-0.031,0.428-0.097c0.3-0.143,0.605-0.28,0.917-0.412
	c0.509-0.216,0.746-0.802,0.531-1.311C27.452,40.136,26.861,39.902,26.357,40.115z"/>
<path style="fill:#82614A;" d="M17.222,51.37c-0.552,0.016-0.986,0.476-0.972,1.028c0.011,0.387,0.046,0.778,0.104,1.162
	c0.075,0.496,0.502,0.852,0.988,0.852c0.049,0,0.1-0.004,0.149-0.011c0.547-0.083,0.923-0.592,0.841-1.138
	c-0.046-0.305-0.074-0.611-0.082-0.922C18.235,51.79,17.781,51.384,17.222,51.37z"/>
<path style="fill:#82614A;" d="M19.165,46.552c-0.472-0.288-1.087-0.14-1.375,0.332c-0.201,0.331-0.385,0.666-0.549,1.009
	c-0.238,0.499-0.027,1.096,0.471,1.334c0.14,0.066,0.286,0.098,0.431,0.098c0.373,0,0.731-0.21,0.903-0.568
	c0.135-0.282,0.285-0.559,0.451-0.829C19.785,47.455,19.635,46.84,19.165,46.552z"/>
<path style="fill:#82614A;" d="M31.515,38.479c-0.355,0.079-0.706,0.164-1.053,0.254c-0.535,0.139-0.855,0.685-0.717,1.219
	c0.116,0.45,0.522,0.749,0.967,0.749c0.083,0,0.168-0.01,0.252-0.032c0.323-0.084,0.652-0.163,0.984-0.236
	c0.539-0.12,0.879-0.653,0.76-1.193C32.589,38.7,32.059,38.359,31.515,38.479z"/>
<path style="fill:#82614A;" d="M36.848,37.725c-0.362,0.023-0.722,0.052-1.079,0.087c-0.55,0.055-0.951,0.544-0.896,1.094
	c0.051,0.516,0.486,0.901,0.994,0.901c0.032,0,0.066-0.002,0.1-0.005c0.334-0.033,0.67-0.06,1.009-0.081
	c0.552-0.035,0.97-0.511,0.935-1.062C37.875,38.107,37.386,37.691,36.848,37.725z"/>
<path style="fill:#82614A;" d="M47.551,38.652c-0.347-0.09-0.698-0.175-1.055-0.252c-0.541-0.117-1.074,0.222-1.19,0.763
	c-0.118,0.54,0.224,1.072,0.763,1.19c0.331,0.073,0.657,0.15,0.98,0.234c0.084,0.022,0.169,0.032,0.252,0.032
	c0.444,0,0.851-0.299,0.967-0.749C48.407,39.337,48.087,38.791,47.551,38.652z"/>
<path style="fill:#82614A;" d="M42.224,37.765c-0.354-0.028-0.714-0.053-1.077-0.071c-0.542-0.026-1.021,0.398-1.049,0.949
	c-0.027,0.552,0.397,1.021,0.949,1.049c0.342,0.017,0.68,0.039,1.013,0.067c0.028,0.002,0.056,0.003,0.083,0.003
	c0.516,0,0.952-0.396,0.996-0.918C43.184,38.293,42.775,37.811,42.224,37.765z"/>
<path style="fill:#82614A;" d="M20.248,51.647c-0.553,0-1,0.447-1,1v5h0.94h1.06v-5C21.248,52.095,20.8,51.647,20.248,51.647z"/>
<path style="fill:#82614A;" d="M40.248,51.647c-0.553,0-1,0.447-1,1v5h2v-5C41.248,52.095,40.8,51.647,40.248,51.647z"/>
<path style="fill:#82614A;" d="M24.248,51.647c-0.553,0-1,0.447-1,1v5h2v-5C25.248,52.095,24.8,51.647,24.248,51.647z"/>
<path style="fill:#82614A;" d="M28.248,51.647c-0.553,0-1,0.447-1,1v5h2v-5C29.248,52.095,28.8,51.647,28.248,51.647z"/>
<path style="fill:#82614A;" d="M32.248,51.647c-0.553,0-1,0.447-1,1v5h2v-5C33.248,52.095,32.8,51.647,32.248,51.647z"/>
<path style="fill:#82614A;" d="M36.248,51.647c-0.553,0-1,0.447-1,1v5h2v-5C37.248,52.095,36.8,51.647,36.248,51.647z"/>
<path style="fill:#82614A;" d="M51.658,40.045c-0.507-0.216-1.095,0.016-1.313,0.524c-0.218,0.508,0.017,1.096,0.524,1.313
	l0.434,0.189c0.275-0.596,0.545-1.205,0.808-1.828L51.658,40.045z"/>
<path style="fill:#82614A;" d="M21.602,42.811c-0.3,0.226-0.588,0.456-0.866,0.692c-0.42,0.358-0.471,0.989-0.113,1.41
	c0.198,0.232,0.479,0.352,0.762,0.352c0.229,0,0.46-0.078,0.648-0.238c0.247-0.211,0.504-0.416,0.771-0.616
	c0.441-0.332,0.53-0.959,0.199-1.4C22.671,42.568,22.044,42.48,21.602,42.811z"/>
<path style="fill:#82614A;" d="M26.357,40.115c-0.339,0.144-0.67,0.293-0.995,0.447c-0.499,0.237-0.712,0.834-0.475,1.332
	c0.171,0.36,0.53,0.571,0.904,0.571c0.144,0,0.29-0.031,0.428-0.097c0.3-0.143,0.605-0.28,0.917-0.412
	c0.509-0.216,0.746-0.802,0.531-1.311C27.452,40.136,26.861,39.902,26.357,40.115z"/>
<path style="fill:#82614A;" d="M19.165,46.552c-0.472-0.288-1.087-0.14-1.375,0.332c-0.201,0.331-0.385,0.666-0.549,1.009
	c-0.238,0.499-0.027,1.096,0.471,1.334c0.14,0.066,0.286,0.098,0.431,0.098c0.373,0,0.731-0.21,0.903-0.568
	c0.135-0.282,0.285-0.559,0.451-0.829C19.785,47.455,19.635,46.84,19.165,46.552z"/>
<path style="fill:#82614A;" d="M17.222,51.37c-0.552,0.016-0.986,0.476-0.972,1.028c0.011,0.387,0.046,0.778,0.104,1.162
	c0.075,0.496,0.502,0.852,0.988,0.852c0.049,0,0.1-0.004,0.149-0.011c0.547-0.083,0.923-0.592,0.841-1.138
	c-0.046-0.305-0.074-0.611-0.082-0.922C18.235,51.79,17.781,51.384,17.222,51.37z"/>
<path style="fill:#82614A;" d="M36.848,37.725c-0.362,0.023-0.722,0.052-1.079,0.087c-0.55,0.055-0.951,0.544-0.896,1.094
	c0.051,0.516,0.486,0.901,0.994,0.901c0.032,0,0.066-0.002,0.1-0.005c0.334-0.033,0.67-0.06,1.009-0.081
	c0.552-0.035,0.97-0.511,0.935-1.062C37.875,38.107,37.386,37.691,36.848,37.725z"/>
<path style="fill:#82614A;" d="M47.551,38.652c-0.347-0.09-0.698-0.175-1.055-0.252c-0.541-0.117-1.074,0.222-1.19,0.763
	c-0.118,0.54,0.224,1.072,0.763,1.19c0.331,0.073,0.657,0.15,0.98,0.234c0.084,0.022,0.169,0.032,0.252,0.032
	c0.444,0,0.851-0.299,0.967-0.749C48.407,39.337,48.087,38.791,47.551,38.652z"/>
<path style="fill:#82614A;" d="M42.224,37.765c-0.354-0.028-0.714-0.053-1.077-0.071c-0.542-0.026-1.021,0.398-1.049,0.949
	c-0.027,0.552,0.397,1.021,0.949,1.049c0.342,0.017,0.68,0.039,1.013,0.067c0.028,0.002,0.056,0.003,0.083,0.003
	c0.516,0,0.952-0.396,0.996-0.918C43.184,38.293,42.775,37.811,42.224,37.765z"/>
<path style="fill:#82614A;" d="M31.515,38.479c-0.355,0.079-0.706,0.164-1.053,0.254c-0.535,0.139-0.855,0.685-0.717,1.219
	c0.116,0.45,0.522,0.749,0.967,0.749c0.083,0,0.168-0.01,0.252-0.032c0.323-0.084,0.652-0.163,0.984-0.236
	c0.539-0.12,0.879-0.653,0.76-1.193C32.589,38.7,32.059,38.359,31.515,38.479z"/>
<g>
</g>
<g>
</g>
<g>
</g>
<g>
</g>
<g>
</g>
<g>
</g>
<g>
</g>
<g>
</g>
<g>
</g>
<g>
</g>
<g>
</g>
<g>
</g>
<g>
</g>
<g>
</g>
<g>
</g>
</svg>
