<?xml version="1.0" encoding="iso-8859-1"?>
<!-- Generator: Adobe Illustrator 19.0.0, SVG Export Plug-In . SVG Version: 6.00 Build 0)  -->
<svg version="1.1" id="Capa_1" xmlns="http://www.w3.org/2000/svg" xmlns:xlink="http://www.w3.org/1999/xlink" x="0px" y="0px"
	 viewBox="0 0 56 56" style="enable-background:new 0 0 56 56;" xml:space="preserve">
<path style="fill:#D3DADD;" d="M21.576,1.571l-1.399,1.683c-6.45,7.736-9.76,11.714-11.244,25.388
	c2.399,0.275,4.727,0.392,6.972,0.351c1.615-14.76,6.145-20.227,12.937-28.41l0.456-0.55C28.867,0.013,28.435,0,28,0
	c-2.145,0-4.231,0.249-6.238,0.706C21.832,1.001,21.784,1.32,21.576,1.571z"/>
<path style="fill:#ECF0F1;" d="M6.95,28.38C8.507,14.136,12.15,9.759,18.64,1.974l0.422-0.508
	C8.278,5.097,0.436,15.111,0.025,27.019c0.074,0.002,0.147-0.008,0.221,0.011C2.527,27.611,4.763,28.056,6.95,28.38z"/>
<path style="fill:#ECF0F1;" d="M1.507,34.832c10.126,4.737,16.049,5.385,29.952-0.306c-1.109-1.804-2.341-3.542-3.715-5.202
	l-0.117-0.156c-3.29,1.051-6.886,1.657-10.725,1.803c-0.033,0.003-0.063,0.018-0.097,0.018c-0.033,0-0.065-0.001-0.1-0.005
	c-0.008-0.001-0.013-0.005-0.021-0.006c-0.548,0.018-1.1,0.03-1.658,0.03c-2.322,0-4.724-0.163-7.19-0.481l-0.001,0
	c-0.033,0-0.066-0.001-0.1-0.005c-0.014-0.001-0.025-0.01-0.038-0.012c-2.496-0.328-5.058-0.822-7.671-1.475
	c0.072,1.975,0.345,3.899,0.806,5.749C1.051,34.726,1.287,34.729,1.507,34.832z"/>
<path style="fill:#ECF0F1;" d="M30.381,1.86c-6.745,8.126-10.887,13.121-12.457,27.053c3.269-0.205,6.337-0.763,9.158-1.671
	C28.37,15.45,32.16,10.975,37.377,4.85c0.655-0.769,1.336-1.571,2.038-2.416c-2.469-1.104-5.125-1.859-7.91-2.208
	c-0.021,0.186-0.076,0.37-0.205,0.525L30.381,1.86z"/>
<path style="fill:#D3DADD;" d="M6.838,45.075c10.835,2.786,16.279,3.377,28.825-1.613c-0.856-2.501-1.935-4.891-3.204-7.184
	c-6.972,2.875-12.144,4.311-17.024,4.311c-4.475,0-8.732-1.209-13.941-3.572c1.026,3.018,2.552,5.802,4.481,8.258
	C6.212,45.087,6.521,44.994,6.838,45.075z"/>
<path style="fill:#ECF0F1;" d="M38.899,6.146c-0.744,0.873-1.447,1.703-2.118,2.52c11.452,5.943,15.582,14.402,18.239,26.679
	C55.655,33.004,56,30.543,56,28c0-10.679-5.98-19.96-14.773-24.682c-0.032,0.063-0.053,0.13-0.1,0.187
	C40.357,4.435,39.614,5.308,38.899,6.146z"/>
<path style="fill:#D3DADD;" d="M53.433,37.509c-2.555-12.773-6.357-21.375-17.92-27.249c-1.467,1.91-2.724,3.84-3.747,6.144
	c11.474,7.685,16.488,16.99,16.597,30.804c2.431-2.576,4.376-5.611,5.695-8.964C53.748,38.125,53.502,37.858,53.433,37.509z"/>
<path style="fill:#ECF0F1;" d="M31.014,18.312c-0.904,2.539-1.571,5.554-1.975,9.407l0.275,0.367
	c5.92,7.149,9.496,15.656,10.608,25.251c2.458-1.158,4.718-2.663,6.721-4.452c-0.165-0.18-0.27-0.417-0.268-0.681
	C46.503,34.729,41.88,25.723,31.014,18.312z"/>
<path style="fill:#ECF0F1;" d="M36.254,45.378c-6.895,2.731-11.747,3.853-16.441,3.853c-3.755,0-7.435-0.71-12.01-1.85
	C12.897,52.69,20.06,56,28,56c3.532,0,6.909-0.661,10.021-1.854l-0.048-0.266C37.649,50.932,37.057,48.105,36.254,45.378z"/>
<path style="fill:#C7D0D8;" d="M36.781,8.666c0.671-0.817,1.375-1.647,2.118-2.52c0.715-0.839,1.458-1.712,2.228-2.642
	c0.047-0.057,0.068-0.124,0.1-0.187c-0.591-0.317-1.197-0.609-1.812-0.884c-0.702,0.844-1.383,1.647-2.038,2.416
	C32.16,10.975,28.37,15.45,27.082,27.242c-2.821,0.909-5.889,1.467-9.158,1.671c1.57-13.933,5.712-18.927,12.457-27.053l0.92-1.109
	c0.128-0.155,0.183-0.339,0.205-0.525c-0.728-0.091-1.463-0.159-2.208-0.193l-0.456,0.55c-6.792,8.183-11.322,13.65-12.937,28.41
	c-2.245,0.041-4.573-0.076-6.972-0.351c1.484-13.674,4.794-17.652,11.244-25.388l1.399-1.683c0.208-0.251,0.256-0.57,0.186-0.865
	c-0.918,0.209-1.819,0.463-2.7,0.76L18.64,1.974C12.15,9.759,8.507,14.136,6.95,28.38c-2.187-0.325-4.423-0.77-6.703-1.35
	c-0.074-0.019-0.147-0.01-0.221-0.011C0.014,27.345,0,27.671,0,28c0,0.347,0.014,0.69,0.026,1.034
	c2.613,0.654,5.175,1.147,7.671,1.475c0.014,0.002,0.024,0.01,0.038,0.012c0.033,0.003,0.066,0.005,0.1,0.005l0.001,0
	c2.466,0.318,4.868,0.481,7.19,0.481c0.558,0,1.11-0.011,1.658-0.03c0.007,0.001,0.013,0.006,0.021,0.006
	c0.034,0.003,0.066,0.005,0.1,0.005c0.034,0,0.064-0.015,0.097-0.018c3.839-0.146,7.436-0.752,10.725-1.803l0.117,0.156
	c1.374,1.659,2.606,3.398,3.715,5.202c-13.903,5.691-19.827,5.044-29.952,0.306c-0.22-0.103-0.456-0.106-0.675-0.048
	c0.189,0.758,0.412,1.503,0.661,2.235c5.209,2.363,9.466,3.572,13.941,3.572c4.88,0,10.052-1.436,17.024-4.311
	c1.269,2.292,2.348,4.683,3.204,7.184c-12.546,4.99-17.99,4.399-28.825,1.613c-0.316-0.081-0.626,0.012-0.864,0.201
	c0.575,0.732,1.184,1.434,1.828,2.104c4.576,1.141,8.255,1.85,12.01,1.85c4.695,0,9.546-1.121,16.441-3.853
	c0.803,2.727,1.395,5.554,1.719,8.502l0.048,0.266c0.646-0.248,1.28-0.516,1.902-0.809c-1.112-9.595-4.688-18.102-10.608-25.251
	l-0.275-0.367c0.404-3.853,1.07-6.867,1.975-9.407c10.867,7.411,15.489,16.417,15.362,29.891c-0.002,0.264,0.102,0.501,0.268,0.681
	c0.597-0.534,1.169-1.094,1.719-1.677c-0.109-13.815-5.123-23.119-16.597-30.804c1.023-2.304,2.28-4.234,3.747-6.144
	c11.563,5.875,15.365,14.476,17.92,27.249c0.07,0.349,0.315,0.616,0.625,0.735c0.371-0.943,0.693-1.909,0.962-2.898
	C52.363,23.068,48.233,14.609,36.781,8.666z"/>
<g>
</g>
<g>
</g>
<g>
</g>
<g>
</g>
<g>
</g>
<g>
</g>
<g>
</g>
<g>
</g>
<g>
</g>
<g>
</g>
<g>
</g>
<g>
</g>
<g>
</g>
<g>
</g>
<g>
</g>
</svg>
