<?xml version="1.0" encoding="iso-8859-1"?>
<!-- Generator: Adobe Illustrator 19.0.0, SVG Export Plug-In . SVG Version: 6.00 Build 0)  -->
<svg version="1.1" id="Capa_1" xmlns="http://www.w3.org/2000/svg" xmlns:xlink="http://www.w3.org/1999/xlink" x="0px" y="0px"
	 viewBox="0 0 56 56" style="enable-background:new 0 0 56 56;" xml:space="preserve">
<path style="fill:#D25627;" d="M0,49.554l0-3.637C0,20.558,20.558,0,45.916,0l3.637,0C53.114,0,56,2.886,56,6.446v3.637
	C56,35.442,35.442,56,10.084,56H6.446C2.886,56,0,53.114,0,49.554z"/>
<path style="fill:#964229;" d="M56,10.083V6.446c0-1.42-0.465-2.729-1.243-3.794C27.205,10.747,13.696,19.325,3.599,55.331
	C4.459,55.755,5.423,56,6.446,56h3.637C35.443,56,56,35.443,56,10.083z"/>
<g>
	<path style="fill:#ECF0F1;" d="M37.707,14.293l-7-7c-0.391-0.391-1.023-0.391-1.414,0s-0.391,1.023,0,1.414l7,7
		C36.488,15.902,36.744,16,37,16s0.512-0.098,0.707-0.293C38.098,15.316,38.098,14.684,37.707,14.293z"/>
	<path style="fill:#ECF0F1;" d="M5.707,36.293c-0.391-0.391-1.023-0.391-1.414,0s-0.391,1.023,0,1.414l7,7
		C11.488,44.902,11.744,45,12,45s0.512-0.098,0.707-0.293c0.391-0.391,0.391-1.023,0-1.414L5.707,36.293z"/>
	<path style="fill:#ECF0F1;" d="M19.707,14.293c-0.391-0.391-1.023-0.391-1.414,0s-0.391,1.023,0,1.414l7,7
		C25.488,22.902,25.744,23,26,23s0.512-0.098,0.707-0.293c0.391-0.391,0.391-1.023,0-1.414L19.707,14.293z"/>
	<path style="fill:#ECF0F1;" d="M8.707,30.293c-0.391-0.391-1.023-0.391-1.414,0s-0.391,1.023,0,1.414l7,7
		C14.488,38.902,14.744,39,15,39s0.512-0.098,0.707-0.293c0.391-0.391,0.391-1.023,0-1.414L8.707,30.293z"/>
	<path style="fill:#ECF0F1;" d="M15.707,19.293c-0.391-0.391-1.023-0.391-1.414,0s-0.391,1.023,0,1.414l7,7
		C21.488,27.902,21.744,28,22,28s0.512-0.098,0.707-0.293c0.391-0.391,0.391-1.023,0-1.414L15.707,19.293z"/>
	<path style="fill:#ECF0F1;" d="M24.707,10.293c-0.391-0.391-1.023-0.391-1.414,0s-0.391,1.023,0,1.414l7,7
		C30.488,18.902,30.744,19,31,19s0.512-0.098,0.707-0.293c0.391-0.391,0.391-1.023,0-1.414L24.707,10.293z"/>
	<path style="fill:#ECF0F1;" d="M11.707,24.293c-0.391-0.391-1.023-0.391-1.414,0s-0.391,1.023,0,1.414l7,7
		C17.488,32.902,17.744,33,18,33s0.512-0.098,0.707-0.293c0.391-0.391,0.391-1.023,0-1.414L11.707,24.293z"/>
</g>
<g>
</g>
<g>
</g>
<g>
</g>
<g>
</g>
<g>
</g>
<g>
</g>
<g>
</g>
<g>
</g>
<g>
</g>
<g>
</g>
<g>
</g>
<g>
</g>
<g>
</g>
<g>
</g>
<g>
</g>
</svg>
