<?xml version="1.0" encoding="iso-8859-1"?>
<!-- Generator: Adobe Illustrator 19.0.0, SVG Export Plug-In . SVG Version: 6.00 Build 0)  -->
<svg version="1.1" id="Capa_1" xmlns="http://www.w3.org/2000/svg" xmlns:xlink="http://www.w3.org/1999/xlink" x="0px" y="0px"
	 viewBox="0 0 375.467 375.467" style="enable-background:new 0 0 375.467 375.467;" xml:space="preserve">
<polygon style="fill:#EAEAEA;" points="300.373,68.267 75.093,68.267 6.827,304.811 6.827,354.987 368.64,354.987 368.64,304.811 
	"/>
<path style="fill:#602F75;" d="M368.64,361.813H6.827c-3.768,0-6.827-3.058-6.827-6.827v-50.176c0-0.642,0.089-1.28,0.27-1.894
	L68.536,66.372c0.843-2.922,3.516-4.932,6.557-4.932h225.28c3.041,0,5.714,2.01,6.557,4.932l68.267,236.544
	c0.177,0.614,0.27,1.253,0.27,1.894v50.176C375.467,358.755,372.408,361.813,368.64,361.813z M13.653,348.16h348.16v-42.383
	L295.24,75.093H80.227L13.653,305.777V348.16z"/>
<path style="fill:#602F75;" d="M157.013,129.707c-3.768,0-6.827-3.058-6.827-6.827V20.48c0-3.768,3.058-6.827,6.827-6.827
	s6.827,3.058,6.827,6.827v102.4C163.84,126.648,160.782,129.707,157.013,129.707z"/>
<path style="fill:#602F75;" d="M218.453,129.707c-3.768,0-6.827-3.058-6.827-6.827V20.48c0-3.768,3.058-6.827,6.827-6.827
	s6.827,3.058,6.827,6.827v102.4C225.28,126.648,222.222,129.707,218.453,129.707z"/>
<path style="fill:#602F75;" d="M218.453,47.787h-61.44c-3.768,0-6.827-3.058-6.827-6.827c0-3.768,3.058-6.827,6.827-6.827h61.44
	c3.768,0,6.827,3.058,6.827,6.827C225.28,44.728,222.222,47.787,218.453,47.787z"/>
<path style="fill:#602F75;" d="M218.453,75.093h-61.44c-3.768,0-6.827-3.058-6.827-6.827c0-3.768,3.058-6.827,6.827-6.827h61.44
	c3.768,0,6.827,3.058,6.827,6.827C225.28,72.035,222.222,75.093,218.453,75.093z"/>
<path style="fill:#602F75;" d="M218.453,102.4h-61.44c-3.768,0-6.827-3.058-6.827-6.827s3.058-6.827,6.827-6.827h61.44
	c3.768,0,6.827,3.058,6.827,6.827S222.222,102.4,218.453,102.4z"/>
<polygon style="fill:#00E7FF;" points="285.822,95.573 96.652,95.573 54.613,293.547 320.853,293.547 "/>
<path style="fill:#602F75;" d="M320.853,300.373H54.613c-2.062,0-4.007-0.928-5.304-2.529c-1.297-1.601-1.799-3.7-1.372-5.714
	L89.975,94.157c0.669-3.154,3.454-5.41,6.676-5.41h189.17c3.311,0,6.144,2.376,6.721,5.635l35.031,197.973
	c0.352,1.99-0.195,4.031-1.492,5.577C324.785,299.479,322.871,300.373,320.853,300.373z M63.041,286.72h249.672L280.095,102.4
	H102.182L63.041,286.72z"/>
<g>
	<path style="fill:#FFFFFF;" d="M129.707,252.587c-18.821,0-34.133-15.312-34.133-34.133c0-3.768,3.058-6.827,6.827-6.827
		s6.827,3.058,6.827,6.827c0,11.295,9.185,20.48,20.48,20.48c11.295,0,20.48-9.185,20.48-20.48c0-3.768,3.058-6.827,6.827-6.827
		s6.827,3.058,6.827,6.827C163.84,237.274,148.528,252.587,129.707,252.587z"/>
	<path style="fill:#FFFFFF;" d="M184.32,252.587c-18.821,0-34.133-15.312-34.133-34.133c0-3.768,3.058-6.827,6.827-6.827
		s6.827,3.058,6.827,6.827c0,11.295,9.185,20.48,20.48,20.48c11.295,0,20.48-9.185,20.48-20.48c0-3.768,3.058-6.827,6.827-6.827
		c3.768,0,6.827,3.058,6.827,6.827C218.453,237.274,203.141,252.587,184.32,252.587z"/>
	<path style="fill:#FFFFFF;" d="M238.933,184.32c-18.821,0-34.133-15.312-34.133-34.133c0-3.768,3.058-6.827,6.827-6.827
		c3.768,0,6.827,3.058,6.827,6.827c0,11.295,9.185,20.48,20.48,20.48c11.295,0,20.48-9.185,20.48-20.48
		c0-3.768,3.058-6.827,6.827-6.827c3.768,0,6.827,3.058,6.827,6.827C273.067,169.008,257.754,184.32,238.933,184.32z"/>
</g>
<g>
</g>
<g>
</g>
<g>
</g>
<g>
</g>
<g>
</g>
<g>
</g>
<g>
</g>
<g>
</g>
<g>
</g>
<g>
</g>
<g>
</g>
<g>
</g>
<g>
</g>
<g>
</g>
<g>
</g>
</svg>
