<?xml version="1.0" encoding="iso-8859-1"?>
<!-- Generator: Adobe Illustrator 19.1.0, SVG Export Plug-In . SVG Version: 6.00 Build 0)  -->
<svg version="1.1" id="Capa_1" xmlns="http://www.w3.org/2000/svg" xmlns:xlink="http://www.w3.org/1999/xlink" x="0px" y="0px"
	 viewBox="0 0 446.429 446.429" style="enable-background:new 0 0 446.429 446.429;" xml:space="preserve">
<g>
	<g>
		<circle style="fill:#71BE5B;" cx="223.214" cy="208.06" r="208.06"/>
		<path style="fill:#FFFFFF;" d="M430.737,193.162H229.546l82.36-173.35c-16.549-7.811-34.291-13.506-52.883-16.731l-90.311,190.081
			H15.69c-0.349,4.921-0.536,9.887-0.536,14.898c0,15.786,1.767,31.158,5.099,45.938h405.922c3.332-14.78,5.099-30.152,5.099-45.938
			C431.275,203.049,431.086,198.083,430.737,193.162z"/>
	</g>
	<g>
		<path style="fill:#71BE5B;" d="M310.061,381.753c12.627-13.446,20.828-29.731,24.721-47.261h-24.721V381.753z"/>
		<polygon style="fill:#71BE5B;" points="250.893,334.492 250.893,388.348 303.239,388.348 304.749,388.348 304.749,386.989 
			304.749,334.492 		"/>
		<path style="fill:#71BE5B;" d="M111.553,334.492c4.249,8.617,9.485,16.965,15.689,24.863v-24.863H111.553z"/>
		<path style="fill:#71BE5B;" d="M186.411,334.492h-53.857v31.249c2.033,2.306,4.15,4.569,6.359,6.778
			c5.91,5.91,12.186,11.183,18.725,15.829h28.772V334.492z"/>
		<path style="fill:#71BE5B;" d="M165.678,393.661c6.717,4.119,13.659,7.607,20.734,10.452v-10.452H165.678z"/>
		<path style="fill:#71BE5B;" d="M191.724,393.661v12.463c17.786,6.297,36.232,8.605,53.856,6.818v-19.281H191.724z"/>
		<path style="fill:#71BE5B;" d="M250.893,412.271c16.549-2.48,32.219-8.657,45.745-18.611h-45.745V412.271z"/>
		<rect x="191.724" y="334.492" style="fill:#71BE5B;" width="53.856" height="53.856"/>
		<path style="fill:#F1F3E0;" d="M127.242,216.154v53.856H98.155c-0.115,1.764-0.189,3.535-0.222,5.313h29.31v53.856h-18.168
			c0.785,1.781,1.611,3.553,2.479,5.313h15.689v24.863c1.699,2.164,3.468,4.294,5.313,6.386v-31.249h53.857v53.856H157.64
			c2.639,1.874,5.32,3.646,8.038,5.313h20.734v10.452c1.763,0.709,3.534,1.381,5.313,2.011v-12.463h53.856v19.281
			c1.78-0.18,3.552-0.405,5.313-0.67v-18.611h45.745c2.263-1.665,4.466-3.436,6.601-5.313h-52.346v-53.856h53.856v52.497
			c1.066-0.975,2.119-1.969,3.15-3c0.736-0.736,1.455-1.483,2.163-2.236v-47.261h24.721c0.391-1.76,0.739-3.53,1.042-5.313h-25.763
			v-53.856l22.378-0.001c-0.512-1.775-1.061-3.547-1.653-5.312h-20.725v-39.285c-1.693-2.258-3.464-4.483-5.313-6.668v45.953
			h-53.856v-53.856l46.658,0.001c-0.374-0.383-0.743-0.769-1.123-1.149c-1.426-1.427-2.876-2.812-4.344-4.164l-41.191-0.001v-26.62
			c-1.763-0.741-3.534-1.442-5.313-2.103v28.723h-53.856v-36.435c-1.779,0.15-3.551,0.339-5.313,0.57v35.865h-53.857v-12.057
			c-1.747,1.516-3.455,3.093-5.112,4.75c-0.069,0.068-0.133,0.139-0.201,0.207v7.1h-6.398c-1.417,1.732-2.771,3.503-4.056,5.313
			H127.242z M250.893,275.323h53.856v53.856h-53.856V275.323z M191.724,216.154h53.856v53.856h-53.856V216.154z M191.724,275.323
			h53.856v53.856h-53.856V275.323z M191.724,334.492h53.856v53.856h-53.856V334.492z M132.555,216.154h53.857v53.856h-53.857
			V216.154z M132.555,275.323h53.857v53.856h-53.857V275.323z"/>
		<path style="opacity:0.49;fill:#E96660;" d="M127.242,216.154v53.856H98.155c-0.115,1.764-0.189,3.535-0.222,5.313h29.31v53.856
			h-18.168c0.785,1.781,1.611,3.553,2.479,5.313h15.689v24.863c1.699,2.164,3.468,4.294,5.313,6.386v-31.249h53.857v53.856H157.64
			c2.639,1.874,5.32,3.646,8.038,5.313h20.734v10.452c1.763,0.709,3.534,1.381,5.313,2.011v-12.463h53.856v19.281
			c1.78-0.18,3.552-0.405,5.313-0.67v-18.611h45.745c2.263-1.665,4.466-3.436,6.601-5.313h-52.346v-53.856h53.856v52.497
			c1.066-0.975,2.119-1.969,3.15-3c0.736-0.736,1.455-1.483,2.163-2.236v-47.261h24.721c0.391-1.76,0.739-3.53,1.042-5.313h-25.763
			v-53.856l22.378-0.001c-0.512-1.775-1.061-3.547-1.653-5.312h-20.725v-39.285c-1.693-2.258-3.464-4.483-5.313-6.668v45.953
			h-53.856v-53.856l46.658,0.001c-0.374-0.383-0.743-0.769-1.123-1.149c-1.426-1.427-2.876-2.812-4.344-4.164l-41.191-0.001v-26.62
			c-1.763-0.741-3.534-1.442-5.313-2.103v28.723h-53.856v-36.435c-1.779,0.15-3.551,0.339-5.313,0.57v35.865h-53.857v-12.057
			c-1.747,1.516-3.455,3.093-5.112,4.75c-0.069,0.068-0.133,0.139-0.201,0.207v7.1h-6.398c-1.417,1.732-2.771,3.503-4.056,5.313
			H127.242z M250.893,275.323h53.856v53.856h-53.856V275.323z M245.579,216.154v53.856h-53.856v-53.856 M191.724,275.323h53.856
			v53.856h-53.856V275.323z M191.724,334.492h53.856v53.856h-53.856V334.492z M132.555,216.154h53.857v53.856h-53.857V216.154z
			 M132.555,275.323h53.857v53.856h-53.857V275.323z"/>
		<path style="fill:#EA7053;" d="M63.388,139.48c-5.115,5.115-12.548,6.476-18.916,4.118c10.206,31.773,23.509,76.991,23.951,98.076
			c1.038,49.462,5.167,104.102,43.388,146.674c1.607,1.791,3.262,3.565,4.992,5.313c0.161,0.163,0.313,0.331,0.475,0.494
			c3.237,3.237,6.565,6.319,9.963,9.26c1.752,1.516,3.521,2.998,5.313,4.435c62.899,50.464,148.967,52.089,200.129,0.927
			c34.534-34.534,45.014-84.971,32.662-133.453c-0.453-1.774-0.939-3.545-1.452-5.313c-5.423-18.688-14.255-36.983-26.429-53.856
			c-1.29-1.788-2.619-3.558-3.984-5.313c-4.7-6.043-9.835-11.887-15.419-17.471c-2.616-2.616-5.286-5.084-8-7.424
			c-1.752-1.509-3.524-2.956-5.313-4.355c-41.371-32.384-92.567-36.097-139.166-37.075c-21.085-0.443-66.303-13.746-98.076-23.951
			C69.865,126.932,68.504,134.365,63.388,139.48z M127.242,203.741c0.073-0.063,0.132-0.139,0.201-0.207
			c1.657-1.657,3.365-3.233,5.112-4.75c15.329-13.301,34-21.191,53.857-23.808c1.762-0.231,3.533-0.42,5.313-0.57
			c17.679-1.483,36.124,1.121,53.856,7.712c1.779,0.661,3.55,1.362,5.313,2.103c14.613,6.144,28.628,15.034,41.191,26.62
			c1.467,1.352,2.917,2.737,4.344,4.164c0.38,0.38,0.749,0.765,1.123,1.149c2.516,2.57,4.917,5.206,7.198,7.902
			c1.849,2.185,3.619,4.41,5.313,6.668c9.224,12.297,16.151,25.613,20.725,39.285c0.591,1.765,1.14,3.537,1.653,5.312
			c5.193,17.997,6.354,36.447,3.386,53.857c-0.304,1.783-0.652,3.554-1.042,5.313c-3.893,17.53-12.094,33.815-24.721,47.261
			c-0.708,0.754-1.427,1.5-2.163,2.236c-1.031,1.031-2.084,2.024-3.15,3v1.359h-1.51c-2.136,1.876-4.338,3.648-6.601,5.313
			c-13.526,9.954-29.196,16.13-45.745,18.611c-1.761,0.265-3.533,0.49-5.313,0.67c-17.623,1.787-36.069-0.521-53.856-6.818
			c-1.778-0.63-3.55-1.302-5.313-2.011c-7.074-2.845-14.016-6.333-20.734-10.452c-2.718-1.667-5.399-3.438-8.038-5.313
			c-6.539-4.646-12.816-9.919-18.725-15.829c-2.209-2.209-4.326-4.471-6.359-6.778c-1.845-2.092-3.613-4.222-5.313-6.386
			c-6.204-7.899-11.44-16.246-15.689-24.863c-0.868-1.76-1.693-3.532-2.479-5.313c-7.73-17.52-11.477-35.968-11.142-53.856
			c0.034-1.778,0.108-3.548,0.222-5.313c1.256-19.457,7.421-38.061,18.633-53.856c1.285-1.81,2.64-3.58,4.056-5.313
			C123.498,207.595,125.845,204.956,127.242,203.741z M78.945,196.807l-15.289-57.059l57.059,15.289L78.945,196.807z"/>
		<path style="fill:#29546C;" d="M67.506,120.564c-0.87-2.349-2.231-4.556-4.118-6.444L46.379,97.111
			c-2.742,4.521-5.344,9.136-7.83,13.822c-1.018,1.919-2.015,3.851-2.989,5.796c-2.273,4.54-4.426,9.15-6.454,13.827l8.924,8.924
			c1.887,1.887,4.095,3.248,6.444,4.118c6.367,2.358,13.8,0.998,18.916-4.118C68.504,134.365,69.865,126.932,67.506,120.564z"/>
		<path style="opacity:0.31;fill:#954735;" d="M44.63,143.598c10.206,31.773,23.509,76.991,23.951,98.076
			c1.038,49.462,5.167,104.102,43.388,146.674c1.607,1.791,3.262,3.565,4.992,5.313c0.161,0.163,0.313,0.331,0.475,0.494
			c3.237,3.237,6.565,6.319,9.963,9.26c1.752,1.516,3.503,3.021,5.313,4.435c62.907,49.154,148.978,50.279,200.13,0.927
			c26.861-25.916,38.718-62.075,37.558-99.072c-1.072,33.545-13.441,65.42-37.558,89.536c-51.162,51.162-137.23,49.537-200.13-0.927
			c-1.791-1.437-3.561-2.919-5.313-4.435c-3.398-2.941-6.726-6.023-9.963-9.26c-0.163-0.163-0.314-0.33-0.475-0.494
			c-1.73-1.747-3.385-3.522-4.992-5.313C73.749,336.239,69.62,281.6,68.581,232.138c-0.442-21.085-13.746-66.303-23.951-98.076
			c-2.349-0.87-4.556-2.231-6.444-4.118l-6.075-6.075c-1.014,2.177-2,4.369-2.959,6.577l9.034,9.034
			C40.074,141.367,42.282,142.728,44.63,143.598z"/>
	</g>
	<g>
		<g>
			<path style="fill:#FDEF4F;" d="M321.673,94.647c19.763,19.254,51.401,18.843,70.651-0.92
				c19.259-19.765,18.848-51.402-0.919-70.656c-19.767-19.256-51.402-18.843-70.654,0.923
				C301.496,43.759,301.909,75.389,321.673,94.647z"/>
			<path style="fill:#F6F7F7;" d="M361.844,53.417c12.042,11.731,28.222,16.651,43.747,14.856c0.493-2.589,0.751-5.207,0.829-7.833
				c-13.842,2.128-28.479-1.978-39.259-12.479c-10.782-10.504-15.271-25.033-13.504-38.924c-2.621,0.149-5.23,0.471-7.807,1.036
				C344.46,25.635,349.803,41.683,361.844,53.417z"/>
			<path style="fill:#F6F7F7;" d="M345.922,69.761c10.78,10.502,15.267,25.029,13.5,38.925c2.623-0.152,5.234-0.475,7.809-1.036
				c1.388-15.567-3.948-31.616-15.992-43.348c-12.042-11.734-28.222-16.654-43.751-14.855c-0.495,2.589-0.749,5.206-0.831,7.832
				C320.498,55.151,335.14,59.255,345.922,69.761z"/>
		</g>
		<path style="opacity:0.36;fill:#B0A737;" d="M359.422,108.686c0.01,0,0.017-0.004,0.026-0.004c1.26-0.071,2.52-0.18,3.775-0.349
			c0.217-0.028,0.43-0.073,0.65-0.101c1.122-0.167,2.239-0.338,3.348-0.578c0,0,0.006-0.004,0.01-0.004
			c9.236-2.015,18.007-6.647,25.094-13.922c1.787-1.833,3.377-3.782,4.819-5.801c-5.846,4.394-12.448,7.343-19.309,8.84
			c0,0-0.006,0-0.01,0.002c-1.106,0.24-2.227,0.411-3.346,0.576c-0.22,0.03-0.433,0.075-0.652,0.103
			c-1.253,0.169-2.509,0.274-3.775,0.349c-0.007,0-0.017,0.002-0.024,0.002c-13.51,0.776-27.292-3.848-37.75-14.037
			c-11.439-11.146-16.352-26.434-14.762-41.169c0.021-0.225,0.058-0.445,0.087-0.668c0.982-8.102,3.94-16.01,8.885-22.951
			c-2.003,1.508-3.931,3.167-5.735,5.021c-7.943,8.151-12.483,18.326-13.755,28.816c-0.028,0.223-0.064,0.444-0.086,0.664
			c-1.589,14.739,3.323,30.025,14.764,41.173C332.132,104.836,345.91,109.46,359.422,108.686z"/>
	</g>
</g>
<g>
</g>
<g>
</g>
<g>
</g>
<g>
</g>
<g>
</g>
<g>
</g>
<g>
</g>
<g>
</g>
<g>
</g>
<g>
</g>
<g>
</g>
<g>
</g>
<g>
</g>
<g>
</g>
<g>
</g>
</svg>
