<?xml version="1.0" encoding="iso-8859-1"?>
<!-- Generator: Adobe Illustrator 19.0.0, SVG Export Plug-In . SVG Version: 6.00 Build 0)  -->
<svg version="1.1" id="Capa_1" xmlns="http://www.w3.org/2000/svg" xmlns:xlink="http://www.w3.org/1999/xlink" x="0px" y="0px"
	 viewBox="0 0 211.627 211.627" style="enable-background:new 0 0 211.627 211.627;" xml:space="preserve">
<path d="M68.267,136.533c-31.055,0-56.32-30.624-56.32-68.267S37.212,0,68.267,0s56.32,30.624,56.32,68.267
	S99.321,136.533,68.267,136.533z M68.267,6.827c-27.291,0-49.493,27.561-49.493,61.44s22.202,61.44,49.493,61.44
	s49.493-27.561,49.493-61.44S95.558,6.827,68.267,6.827z"/>
<rect x="59.733" y="157.013" style="fill:#ED5481;" width="17.067" height="51.2"/>
<path d="M76.8,211.627H59.733c-1.884,0-3.413-1.529-3.413-3.413v-51.2c0-1.884,1.529-3.413,3.413-3.413H76.8
	c1.884,0,3.413,1.529,3.413,3.413v51.2C80.213,210.098,78.684,211.627,76.8,211.627z M63.147,204.8h10.24v-44.373h-10.24V204.8z"/>
<path d="M76.803,160.427c-0.222,0-0.447-0.022-0.672-0.067c-1.848-0.37-3.048-2.169-2.678-4.018
	c3.545-17.724,14.988-31.447,15.473-32.022c1.213-1.44,3.364-1.626,4.806-0.41c1.44,1.213,1.626,3.366,0.415,4.808
	c-0.108,0.128-10.808,13.005-14.001,28.964C79.823,159.305,78.397,160.427,76.803,160.427z"/>
<path d="M59.73,160.427c-1.671,0-3.13-1.229-3.376-2.93c-0.027-0.186-2.773-18.796-10.136-26.614
	c-1.292-1.372-1.227-3.531,0.145-4.825c1.372-1.292,3.533-1.227,4.825,0.145c8.849,9.395,11.803,29.476,11.924,30.327
	c0.266,1.867-1.031,3.593-2.895,3.862C60.054,160.415,59.89,160.427,59.73,160.427z"/>
<path d="M49.493,105.813c-1.884,0-3.413-1.529-3.413-3.413V10.24c0-1.884,1.529-3.413,3.413-3.413c1.884,0,3.413,1.529,3.413,3.413
	v92.16C52.907,104.284,51.377,105.813,49.493,105.813z"/>
<path d="M87.04,105.813c-1.884,0-3.413-1.529-3.413-3.413V10.24c0-1.884,1.529-3.413,3.413-3.413c1.884,0,3.413,1.529,3.413,3.413
	v92.16C90.453,104.284,88.924,105.813,87.04,105.813z"/>
<path d="M100.693,44.373H35.84c-1.884,0-3.413-1.529-3.413-3.413c0-1.884,1.529-3.413,3.413-3.413h64.853
	c1.884,0,3.413,1.529,3.413,3.413C104.107,42.844,102.577,44.373,100.693,44.373z"/>
<path d="M100.693,68.267H35.84c-1.884,0-3.413-1.529-3.413-3.413c0-1.884,1.529-3.413,3.413-3.413h64.853
	c1.884,0,3.413,1.529,3.413,3.413C104.107,66.737,102.577,68.267,100.693,68.267z"/>
<path d="M100.693,92.16H35.84c-1.884,0-3.413-1.529-3.413-3.413c0-1.884,1.529-3.413,3.413-3.413h64.853
	c1.884,0,3.413,1.529,3.413,3.413C104.107,90.631,102.577,92.16,100.693,92.16z"/>
<circle style="fill:#85D839;" cx="175.787" cy="85.333" r="20.48"/>
<path d="M175.787,109.227c-13.175,0-23.893-10.718-23.893-23.893s10.718-23.893,23.893-23.893c13.175,0,23.893,10.718,23.893,23.893
	S188.962,109.227,175.787,109.227z M175.787,68.267c-9.411,0-17.067,7.656-17.067,17.067s7.656,17.067,17.067,17.067
	c9.411,0,17.067-7.656,17.067-17.067S185.197,68.267,175.787,68.267z"/>
<g>
</g>
<g>
</g>
<g>
</g>
<g>
</g>
<g>
</g>
<g>
</g>
<g>
</g>
<g>
</g>
<g>
</g>
<g>
</g>
<g>
</g>
<g>
</g>
<g>
</g>
<g>
</g>
<g>
</g>
</svg>
