<?xml version="1.0" encoding="iso-8859-1"?>
<!-- Generator: Adobe Illustrator 17.1.0, SVG Export Plug-In . SVG Version: 6.00 Build 0)  -->
<!DOCTYPE svg PUBLIC "-//W3C//DTD SVG 1.1//EN" "http://www.w3.org/Graphics/SVG/1.1/DTD/svg11.dtd">
<svg version="1.1" id="Capa_1" xmlns="http://www.w3.org/2000/svg" xmlns:xlink="http://www.w3.org/1999/xlink" x="0px" y="0px"
	 viewBox="0 0 439.039 439.039" style="enable-background:new 0 0 439.039 439.039;" xml:space="preserve">
<g>
	<path style="fill:none;" d="M311.583,281.803h47.076c1.833-19.975,5.67-42.883,11.745-60.462h-70.566
		C305.913,238.92,309.749,261.827,311.583,281.803z"/>
	<path style="fill:#6ECCAE;" d="M213.16,193.179c-12.531-0.563-25.379-3.178-37.942-7.859c-5.175-1.929-7.807-7.688-5.878-12.863
		c1.928-5.175,7.686-7.805,12.862-5.878c9.563,3.564,19.27,5.695,28.743,6.432c-2.586-7.236-8.459-14.233-30.72-17.394
		c-4.518-0.644-8.637-0.97-12.245-0.97c-23.975,0-29.008,12.969-36.298,64.51c-4.378,30.734-3.142,48.675,4.008,58.182
		c4.651,6.186,12.781,9.906,25.583,11.707c3.65,0.513,7.036,0.773,10.064,0.773c4.13,0,7.886-0.417,11.312-1.551
		c0.41-0.179,0.829-0.332,1.256-0.453c12.02-4.729,19.816-19.23,25.253-57.643C211.22,215.695,212.84,203.332,213.16,193.179z"/>
	<path style="fill:#7A4D33;" d="M152.335,73.652c0,20.995,17.079,38.076,38.071,38.076c20.989,0,38.065-17.081,38.065-38.076
		c0-20.985-17.076-38.057-38.065-38.057C169.414,35.596,152.335,52.668,152.335,73.652z"/>
	<path style="fill:#FFAC52;" d="M322.426,130.791c15.163,0,27.5-12.337,27.5-27.5c0-15.164-12.337-27.5-27.5-27.5
		c-15.163,0-27.5,12.336-27.5,27.5C294.926,118.454,307.263,130.791,322.426,130.791z"/>
	<path d="M300.495,145.404c6.566,3.433,14.023,5.387,21.931,5.387c26.191,0,47.5-21.308,47.5-47.5c0-26.192-21.309-47.5-47.5-47.5
		s-47.5,21.308-47.5,47.5c0,10.778,3.614,20.724,9.686,28.704c-6.327,15.214-17.267,26.883-31.929,33.917
		c-6.541,3.139-13.685,5.262-21.189,6.405c-0.355-1.588-0.752-3.144-1.236-4.637c-7.665-23.64-30.62-29.508-47.215-31.864
		c-5.521-0.787-10.448-1.169-15.062-1.169c-20.022,0-33.831,7.763-42.216,23.733c-7.223,13.757-10.311,32.707-13.884,57.966
		c-5.325,37.387-3.059,58.54,7.824,73.013c3.512,4.67,7.838,8.48,13.125,11.509c-4.347,18.243-19.83,27.172-32.85,29.279
		c-17.242,2.787-39.856-4.16-51.626-32.028c-1.104-2.615-3.269-4.638-5.952-5.563c-2.684-0.926-5.635-0.667-8.116,0.712
		L5.145,309.457c-4.828,2.683-6.567,8.771-3.885,13.598c2.682,4.828,8.772,6.566,13.598,3.885l20.023-11.125
		c12.884,22.081,34.123,34.938,57.672,34.936c3.495,0,7.046-0.284,10.622-0.862c23.95-3.876,42.262-20.25,48.505-42.224
		c2.173,0.455,4.438,0.851,6.809,1.184c4.635,0.652,8.837,0.969,12.849,0.969c4.622,0,8.857-0.449,12.762-1.295
		c17.782,17.278,14.844,37.98,6.386,51.04c-11.083,17.112-35.005,27.989-63.466,13.71c-2.539-1.272-5.497-1.407-8.14-0.37
		c-2.643,1.038-4.72,3.15-5.713,5.809l-11.664,31.229c-1.933,5.174,0.695,10.935,5.869,12.867c1.153,0.431,2.335,0.635,3.498,0.635
		c4.053,0,7.867-2.483,9.369-6.504l8.004-21.431c35.009,12.397,64.964-3.355,79.029-25.074c7.937-12.256,11.269-26.663,9.38-40.568
		c-1.506-11.089-6.21-21.411-13.747-30.415c15.033-12.694,21.781-36.281,26.055-66.469c2.224-15.623,3.959-29.086,4.193-40.701
		c9.951-1.376,19.461-4.152,28.181-8.337C278.666,175.629,292.015,162.441,300.495,145.404z M322.426,75.791
		c15.163,0,27.5,12.336,27.5,27.5c0,15.163-12.337,27.5-27.5,27.5c-15.163,0-27.5-12.337-27.5-27.5
		C294.926,88.127,307.263,75.791,322.426,75.791z M183.906,287.814c-0.427,0.122-0.846,0.274-1.256,0.453
		c-3.426,1.133-7.182,1.551-11.312,1.551c-3.027,0-6.413-0.26-10.064-0.773c-12.802-1.801-20.932-5.521-25.583-11.707
		c-7.149-9.507-8.386-27.448-4.008-58.182c7.29-51.541,12.323-64.51,36.298-64.51c3.608,0,7.728,0.326,12.245,0.97
		c22.261,3.161,28.134,10.158,30.72,17.394c-9.474-0.736-19.18-2.868-28.743-6.432c-5.176-1.927-10.935,0.704-12.862,5.878
		c-1.929,5.175,0.703,10.934,5.878,12.863c12.563,4.681,25.411,7.296,37.942,7.859c-0.32,10.153-1.94,22.517-4.001,36.992
		C203.721,268.584,195.925,283.085,183.906,287.814z"/>
	<path d="M190.406,131.728c32.018,0,58.065-26.053,58.065-58.076c0-32.012-26.048-58.057-58.065-58.057
		c-32.021,0-58.071,26.044-58.071,58.057C132.335,105.675,158.386,131.728,190.406,131.728z M228.472,73.652
		c0,20.995-17.076,38.076-38.065,38.076c-20.992,0-38.071-17.081-38.071-38.076c0-20.985,17.079-38.057,38.071-38.057
		C211.395,35.596,228.472,52.668,228.472,73.652z"/>
	<path d="M429.039,43.999c-5.523,0-10,4.477-10,10v147.342h-33.257c-0.006,0-0.011,0-0.017,0H271.204c-5.522,0-10,4.477-10,10
		c0,5.523,4.478,10,10,10h7.218c7.242,16.682,12.403,46.159,13.958,71.106c0.009,0.136,0.01,0.275,0.024,0.41
		c0.305,5.014,0.466,9.841,0.466,14.337c0,5.523,4.478,10,10,10s10-4.477,10-10c0-1.715-0.024-3.516-0.071-5.391h44.644
		c-0.047,1.875-0.071,3.676-0.071,5.391c0,5.523,4.478,10,10,10c5.522,0,10-4.477,10-10c0-4.483,0.16-9.297,0.464-14.296
		c0.024-0.224,0.032-0.452,0.042-0.679c1.573-24.898,6.723-54.246,13.943-70.877h27.219V284c0,5.523,4.477,10,10,10
		c5.522,0,10-4.477,10-10v-230C439.039,48.476,434.561,43.999,429.039,43.999z M358.659,281.803h-47.076
		c-1.833-19.975-5.67-42.883-11.745-60.462h70.566C364.329,238.92,360.493,261.827,358.659,281.803z"/>
</g>
<g>
</g>
<g>
</g>
<g>
</g>
<g>
</g>
<g>
</g>
<g>
</g>
<g>
</g>
<g>
</g>
<g>
</g>
<g>
</g>
<g>
</g>
<g>
</g>
<g>
</g>
<g>
</g>
<g>
</g>
</svg>
