<?xml version="1.0" encoding="iso-8859-1"?>
<!-- Generator: Adobe Illustrator 19.0.0, SVG Export Plug-In . SVG Version: 6.00 Build 0)  -->
<svg version="1.1" id="Capa_1" xmlns="http://www.w3.org/2000/svg" xmlns:xlink="http://www.w3.org/1999/xlink" x="0px" y="0px"
	 viewBox="0 0 512 512" style="enable-background:new 0 0 512 512;" xml:space="preserve">
<circle style="fill:#00BAFF;" cx="256" cy="256" r="256"/>
<path style="fill:#008CC3;" d="M104.967,218.085L371.43,484.548C454.824,442.345,512,355.854,512,256
	c0-17.669-1.79-34.92-5.199-51.581l-97.964-97.965L104.967,218.085z"/>
<path style="fill:#E0E0E0;" d="M102.922,461.208C145.618,493.109,198.603,512,256,512c59.827,0,114.858-20.527,158.442-54.917
	L350.25,324h-188.5L102.922,461.208z"/>
<path style="fill:#C0C0C0;" d="M414.442,457.083L350.25,324h-94.298v188c0.016,0,0.032,0,0.048,0
	C315.827,512,370.858,491.473,414.442,457.083z"/>
<path style="fill:#E0E0E0;" d="M115.708,221.241L115.708,221.241c-10.977,0-19.875-8.898-19.875-19.875v-79.499
	c0-10.977,8.898-19.875,19.875-19.875h59.625c16.378,0,25.727,18.698,15.9,31.8l-59.625,79.499
	C127.854,218.296,121.964,221.241,115.708,221.241z"/>
<path style="fill:#C0C0C0;" d="M396.292,221.242L396.292,221.242c10.977,0,19.875-8.898,19.875-19.875v-79.499
	c0-10.977-8.898-19.875-19.875-19.875h-59.625c-16.378,0-25.727,18.697-15.9,31.8l59.625,79.499
	C384.146,218.296,390.036,221.242,396.292,221.242z"/>
<path style="fill:#FFFFFF;" d="M256,386.586L256,386.586c-67.917,0-122.975-55.058-122.975-122.975v-46.16
	c0-67.917,55.058-122.975,122.975-122.975l0,0c67.917,0,122.975,55.058,122.975,122.975v46.16
	C378.975,331.528,323.917,386.586,256,386.586z"/>
<path style="fill:#E0E0E0;" d="M256,94.476L256,94.476c-0.016,0-0.032,0.001-0.048,0.001v292.109c0.016,0,0.032,0.001,0.048,0.001
	l0,0c67.917,0,122.975-55.058,122.975-122.975v-46.16C378.975,149.534,323.917,94.476,256,94.476z"/>
<g>
	<path style="fill:#B3B3B3;" d="M303.856,104.135c-14.413,20.922-24.828,75.713-24.828,91.699
		c-0.001,19.896,16.129,36.025,36.025,36.025c14.554,0,47.23-8.635,63.741-21.057C376.234,162.73,346.067,121.984,303.856,104.135z"
		/>
	<path style="fill:#B3B3B3;" d="M131.117,395.448c28.258,34.288,73.666,56.534,124.883,56.534l0,0
		c52.684,0,99.234-23.53,127.281-59.502l-14.992-31.083c-28.257,26.549-68.114,43.096-112.288,43.096l0,0
		c-43.435,0-82.685-16.005-110.849-41.778L131.117,395.448z"/>
</g>
<path style="fill:#999999;" d="M368.288,361.397c-28.257,26.549-68.114,43.096-112.288,43.096l0,0c-0.016,0-0.032,0-0.048,0v47.488
	c0.016,0,0.032,0.001,0.048,0.001l0,0c52.684,0,99.234-23.53,127.281-59.502L368.288,361.397z"/>
<path style="fill:#333333;" d="M294.116,282.722c0,8.303-6.755,15.058-15.059,15.058c-8.303,0-15.058-6.755-15.058-15.058v-23.349
	l18.468-18.49c6.122-6.13,1.787-16.602-6.872-16.597l-39.192,0.023c-8.658,0.005-12.994,10.482-6.872,16.605L248,259.383v23.34
	c0,8.303-6.755,15.058-15.058,15.058s-15.058-6.755-15.058-15.058h-16c0,17.125,13.933,31.058,31.058,31.058
	c9.14,0,17.369-3.968,23.058-10.272c5.688,6.304,13.918,10.272,23.058,10.272c17.126,0,31.059-13.933,31.059-31.058h-16.001V282.722
	z"/>
<path style="fill:#1A1A1A;" d="M294.116,282.722c0,8.303-6.755,15.058-15.059,15.058c-8.303,0-15.058-6.755-15.058-15.058v-23.349
	l18.468-18.49c6.122-6.13,1.787-16.602-6.872-16.597l-20.239,0.012v79.887c0.215-0.225,0.434-0.446,0.643-0.677
	c5.688,6.304,13.918,10.272,23.058,10.272c17.126,0,31.059-13.933,31.059-31.058L294.116,282.722L294.116,282.722z"/>
<circle style="fill:#333333;" cx="197.71" cy="195.84" r="11.413"/>
<circle style="fill:#1A1A1A;" cx="314.29" cy="195.84" r="11.413"/>
<polygon style="fill:#FFB344;" points="256,496 221.562,461.562 256,427.109 290.439,461.547 "/>
<polygon style="fill:#FF9451;" points="290.438,461.547 256,427.109 255.952,427.157 255.952,495.952 256,496 "/>
<g>
</g>
<g>
</g>
<g>
</g>
<g>
</g>
<g>
</g>
<g>
</g>
<g>
</g>
<g>
</g>
<g>
</g>
<g>
</g>
<g>
</g>
<g>
</g>
<g>
</g>
<g>
</g>
<g>
</g>
</svg>
