<?xml version="1.0" encoding="iso-8859-1"?>
<!-- Generator: Adobe Illustrator 19.0.0, SVG Export Plug-In . SVG Version: 6.00 Build 0)  -->
<svg version="1.1" id="Capa_1" xmlns="http://www.w3.org/2000/svg" xmlns:xlink="http://www.w3.org/1999/xlink" x="0px" y="0px"
	 viewBox="0 0 512.001 512.001" style="enable-background:new 0 0 512.001 512.001;" xml:space="preserve">
<path style="fill:#48A7E6;" d="M414.571,511.987c-24.037,0-45.672-14.281-55.148-36.37l-40.911-125.443
	c-4.702-11.044-15.526-18.178-27.567-18.178h-35.931v-59.997h30.657c36.048,0,68.522,21.415,82.716,54.548l33.118,107.266
	c4.702,11.044,15.526,18.178,27.567,18.178h52.93c16.537,0,29.998,13.461,29.998,29.998c0,16.537-13.461,29.998-29.998,29.998
	L414.571,511.987L414.571,511.987z"/>
<rect x="105.026" y="391.99" style="fill:#B37447;" width="89.995" height="29.998"/>
<rect x="150.024" y="391.99" style="fill:#995C3D;" width="44.998" height="29.998"/>
<rect x="105.026" y="451.987" style="fill:#B37447;" width="89.995" height="29.998"/>
<rect x="150.024" y="451.987" style="fill:#995C3D;" width="44.998" height="29.998"/>
<path style="fill:#7F838C;" d="M105.022,511.987c-8.291,0-14.999-6.709-14.999-14.999V346.996c0-8.291,6.709-14.999,14.999-14.999
	s14.999,6.709,14.999,14.999v149.992C120.021,505.279,113.313,511.987,105.022,511.987z"/>
<g>
	<path style="fill:#757982;" d="M195.017,511.987c-8.291,0-14.999-6.709-14.999-14.999V346.996c0-8.291,6.709-14.999,14.999-14.999
		c8.291,0,14.999,6.709,14.999,14.999v149.992C210.017,505.279,203.308,511.987,195.017,511.987z"/>
	<path style="fill:#757982;" d="M285.013,481.989h-14.999V346.996c0-8.291-6.709-14.999-14.999-14.999s-14.999,6.709-14.999,14.999
		v149.992c0,8.291,6.709,14.999,14.999,14.999h29.998c8.291,0,14.999-6.709,14.999-14.999
		C300.012,488.697,293.303,481.989,285.013,481.989z"/>
</g>
<path style="fill:#7F838C;" d="M45.025,331.996c-8.291,0-14.999,6.709-14.999,14.999v134.993H15.027
	c-8.291,0-14.999,6.709-14.999,14.999c0,8.291,6.709,14.999,14.999,14.999h29.998c8.291,0,14.999-6.709,14.999-14.999V346.996
	C60.024,338.705,53.316,331.996,45.025,331.996z"/>
<rect x="30.03" y="122.004" style="fill:#F9BC35;" width="239.988" height="239.988"/>
<rect x="150.024" y="122.004" style="fill:#F39E31;" width="119.994" height="239.988"/>
<path style="fill:#995C3D;" d="M150.02,182.004c-32.997,0-59.997,26.998-59.997,59.997c0,32.997,27,59.997,59.997,59.997
	s59.997-27,59.997-59.997C210.017,209.002,183.017,182.004,150.02,182.004z"/>
<path style="fill:#804D33;" d="M210.017,242.001c0,32.997-27,59.997-59.997,59.997V182.004
	C183.017,182.004,210.017,209.002,210.017,242.001z"/>
<path style="fill:#E55639;" d="M294.912,125.907L159.919,3.913c-2.701-2.701-6.301-3.9-9.9-3.9s-7.2,1.199-9.9,3.9L5.125,125.907
	c-4.799,3.9-6.299,10.498-4.199,16.499c2.399,5.7,7.798,9.6,14.098,9.6h269.986c6.301,0,11.699-3.9,14.098-9.6
	C301.211,136.405,299.711,129.807,294.912,125.907z"/>
<path style="fill:#CF4529;" d="M299.111,142.406c-2.399,5.7-7.798,9.6-14.098,9.6H150.02V0.013c3.6,0,7.2,1.199,9.9,3.9
	l134.993,121.994C299.711,129.807,301.211,136.405,299.111,142.406z"/>
<g>
</g>
<g>
</g>
<g>
</g>
<g>
</g>
<g>
</g>
<g>
</g>
<g>
</g>
<g>
</g>
<g>
</g>
<g>
</g>
<g>
</g>
<g>
</g>
<g>
</g>
<g>
</g>
<g>
</g>
</svg>
