<?xml version="1.0" encoding="iso-8859-1"?>
<!-- Generator: Adobe Illustrator 19.0.0, SVG Export Plug-In . SVG Version: 6.00 Build 0)  -->
<svg version="1.1" id="Capa_1" xmlns="http://www.w3.org/2000/svg" xmlns:xlink="http://www.w3.org/1999/xlink" x="0px" y="0px"
	 viewBox="0 0 512 512" style="enable-background:new 0 0 512 512;" xml:space="preserve">
<g>
	<g>
		<path d="M512,119.199l-46.202-46.202l29.453-29.482l-28.28-28.253l-29.44,29.468L393.3,0.499l-53.966,53.966L289.364,4.496
			l-80.992,80.992l94.264,94.264L179.813,302.693L84.492,207.37L3.499,288.362l50.469,50.469L0,392.799l44.918,44.919l-29.95,29.979
			l28.28,28.253l29.937-29.965l45.515,45.516l53.967-53.968l49.469,49.469l80.992-80.992l-95.049-95.049L330.904,208.02
			l96.106,96.106l80.992-80.992l-49.969-49.969L512,119.199z M118.7,454.966l-62.167-62.167l25.702-25.701l62.167,62.167
			L118.7,454.966z M246.597,426.008l-24.46,24.459L60.033,288.362l24.459-24.459L246.597,426.008z M427.01,247.593L264.905,85.488
			l24.459-24.459L451.47,223.134L427.01,247.593z M429.767,144.898l-62.166-62.167L393.3,57.032l62.167,62.167L429.767,144.898z"/>
	</g>
</g>
<g>
</g>
<g>
</g>
<g>
</g>
<g>
</g>
<g>
</g>
<g>
</g>
<g>
</g>
<g>
</g>
<g>
</g>
<g>
</g>
<g>
</g>
<g>
</g>
<g>
</g>
<g>
</g>
<g>
</g>
</svg>
