<?xml version="1.0" encoding="iso-8859-1"?>
<!-- Generator: Adobe Illustrator 19.0.0, SVG Export Plug-In . SVG Version: 6.00 Build 0)  -->
<svg version="1.1" id="Capa_1" xmlns="http://www.w3.org/2000/svg" xmlns:xlink="http://www.w3.org/1999/xlink" x="0px" y="0px"
	 viewBox="0 0 512.003 512.003" style="enable-background:new 0 0 512.003 512.003;" xml:space="preserve">
<rect x="334.735" y="220.817" style="fill:#86D6F2;" width="177.268" height="30.018"/>
<rect x="334.735" y="300.866" style="fill:#ACE3FC;" width="132.241" height="30.018"/>
<g>
	<path style="fill:#0C61C6;" d="M270.758,317.646c35.344-21.521,46.589-67.784,25.067-103.128l-54.642-89.737l29.912-18.214
		c7.069-4.304,16.321-2.055,20.626,5.013l46.837,76.917l25.639-15.613l-46.837-76.917c-12.913-21.206-40.671-27.953-61.877-15.04
		L93.101,179.805c-7.018,4.821-16.858,0.985-20.626-5.013L25.639,97.875L0,113.486l46.837,76.917
		c12.897,20.404,39.538,28.534,61.877,15.04l29.912-18.214l49.96,82.045l-18.339,11.167c-13.426,8.176-21.504,22.441-21.608,38.16
		c-0.104,15.719,7.785,30.09,21.101,38.444l116.964,73.363l39.79,65.344l25.639-15.613l-94.195-154.688L270.758,317.646z"/>
	<circle style="fill:#0C61C6;" cx="135.243" cy="66.283" r="50.031"/>
</g>
<g>
	<path style="fill:#0A4EAF;" d="M185.269,66.282c0-27.631-22.4-50.031-50.031-50.031c-9.524,0-18.424,2.663-26.002,7.281
		l52.046,85.472C175.667,100.217,185.269,84.372,185.269,66.282z"/>
	<path style="fill:#0A4EAF;" d="M295.825,214.517l-54.642-89.737l29.912-18.214c7.069-4.304,16.321-2.055,20.626,5.013
		l46.837,76.917l25.639-15.613l-46.837-76.917c-12.913-21.206-40.671-27.953-61.877-15.04l-81.192,49.439L282.79,308.55
		C308.387,284.802,314.673,245.473,295.825,214.517z"/>
</g>
<g>
</g>
<g>
</g>
<g>
</g>
<g>
</g>
<g>
</g>
<g>
</g>
<g>
</g>
<g>
</g>
<g>
</g>
<g>
</g>
<g>
</g>
<g>
</g>
<g>
</g>
<g>
</g>
<g>
</g>
</svg>
