<?xml version="1.0" encoding="iso-8859-1"?>
<!-- Generator: Adobe Illustrator 19.0.0, SVG Export Plug-In . SVG Version: 6.00 Build 0)  -->
<svg version="1.1" id="Layer_1" xmlns="http://www.w3.org/2000/svg" xmlns:xlink="http://www.w3.org/1999/xlink" x="0px" y="0px"
	 viewBox="0 0 509.287 509.287" style="enable-background:new 0 0 509.287 509.287;" xml:space="preserve">
<circle style="fill:#71D456;" cx="254.644" cy="254.644" r="254.644"/>
<path style="fill:#646B79;" d="M409.939,77.648H99.348c-11.868,0-21.362,9.494-21.362,21.362v310.93
	c0,11.868,9.494,21.362,21.362,21.362h310.93c11.868,0,21.362-9.494,21.362-21.362V99.348
	C431.64,87.481,421.807,77.648,409.939,77.648z"/>
<g>
	<rect x="132.917" y="77.648" style="fill:#F1F3F7;" width="243.454" height="109.181"/>
	<rect x="132.917" y="254.644" style="fill:#F1F3F7;" width="243.454" height="176.996"/>
</g>
<g>
	<rect x="175.301" y="302.453" style="fill:#DEDEDF;" width="158.686" height="16.615"/>
	<rect x="175.301" y="347.55" style="fill:#DEDEDF;" width="158.686" height="16.615"/>
</g>
<rect x="132.917" y="405.87" style="fill:#71D456;" width="243.454" height="25.77"/>
<rect x="305.166" y="101.722" style="fill:#646B79;" width="36.62" height="61.372"/>
<g>
	<rect x="163.433" y="105.791" style="fill:#DEDEDF;" width="96.975" height="17.293"/>
	<rect x="163.433" y="141.732" style="fill:#DEDEDF;" width="61.372" height="17.293"/>
</g>
<g>
</g>
<g>
</g>
<g>
</g>
<g>
</g>
<g>
</g>
<g>
</g>
<g>
</g>
<g>
</g>
<g>
</g>
<g>
</g>
<g>
</g>
<g>
</g>
<g>
</g>
<g>
</g>
<g>
</g>
</svg>
