<?xml version="1.0" encoding="iso-8859-1"?>
<!-- Generator: Adobe Illustrator 19.0.0, SVG Export Plug-In . SVG Version: 6.00 Build 0)  -->
<svg version="1.1" id="Layer_1" xmlns="http://www.w3.org/2000/svg" xmlns:xlink="http://www.w3.org/1999/xlink" x="0px" y="0px"
	 viewBox="0 0 511.758 511.758" style="enable-background:new 0 0 511.758 511.758;" xml:space="preserve">
<g>
	<g>
		<path style="fill:#4BB9EC;" d="M159.805,191.603l192.336,192.336l143.246-143.246c21.828-21.836,21.828-57.367,0-79.195
			L382.246,48.357c-21.82-21.82-57.359-21.836-79.195,0L159.805,191.603z"/>
	</g>
	<g>
		<path style="fill:#FF4F19;" d="M16.371,335.037c-21.828,21.836-21.828,57.367,0,79.195l63.195,63.195
			c1.5,1.5,3.531,2.344,5.656,2.344h167.773c2.125,0,4.156-0.844,5.656-2.344l93.489-93.489L159.805,191.603L16.371,335.037z"/>
	</g>
	<g>
		<g>
			<path style="fill:#E3001E;" d="M463.973,479.771h-24c-4.422,0-8-3.578-8-8s3.578-8,8-8h24c4.422,0,8,3.578,8,8
				S468.394,479.771,463.973,479.771z"/>
		</g>
	</g>
	<g>
		<g>
			<path style="fill:#FF4F19;" d="M335.98,447.771c-2.938,0-5.758-1.617-7.164-4.422c-1.977-3.953-0.375-8.758,3.578-10.734l16-8
				c3.953-1.969,8.75-0.375,10.734,3.578c1.977,3.953,0.375,8.758-3.578,10.734l-16,8
				C338.402,447.498,337.183,447.771,335.98,447.771z"/>
		</g>
	</g>
	<g>
		<g>
			<path style="fill:#FF4F19;" d="M391.973,447.771h-8c-4.422,0-8-3.578-8-8s3.578-8,8-8h8c4.422,0,8,3.578,8,8
				S396.394,447.771,391.973,447.771z"/>
		</g>
	</g>
	<g>
		<g>
			<path style="fill:#FF4F19;" d="M367.973,415.771c-2.047,0-4.094-0.781-5.656-2.344c-3.125-3.125-3.125-8.188,0-11.313l8-8
				c3.125-3.125,8.188-3.125,11.313,0s3.125,8.187,0,11.312l-8,8C372.066,414.99,370.019,415.771,367.973,415.771z"/>
		</g>
	</g>
	<g>
		<g>
			<path style="fill:#FF4F19;" d="M407.996,423.771c-2.164,0-4.242-0.883-5.688-2.32c-1.516-1.523-2.312-3.602-2.312-5.68
				s0.797-4.164,2.234-5.602c3.125-3.039,8.398-3.039,11.359-0.078c1.523,1.516,2.406,3.602,2.406,5.68s-0.883,4.156-2.406,5.68
				C412.152,422.889,410.074,423.771,407.996,423.771z"/>
		</g>
	</g>
	<g>
		<g>
			<path style="fill:#FF4F19;" d="M407.996,383.771c-2.164,0-4.242-0.883-5.688-2.32c-1.516-1.523-2.312-3.602-2.312-5.68
				s0.797-4.164,2.234-5.602c3.125-3.039,8.398-3.039,11.359-0.078c1.523,1.516,2.406,3.602,2.406,5.68s-0.883,4.156-2.406,5.68
				C412.152,382.889,410.074,383.771,407.996,383.771z"/>
		</g>
	</g>
	<g>
		<path style="fill:#E3001E;" d="M407.973,463.771H65.91l13.656,13.656c1.5,1.5,3.531,2.344,5.656,2.344h322.75c4.422,0,8-3.578,8-8
			S412.394,463.771,407.973,463.771z"/>
	</g>
</g>
<g>
</g>
<g>
</g>
<g>
</g>
<g>
</g>
<g>
</g>
<g>
</g>
<g>
</g>
<g>
</g>
<g>
</g>
<g>
</g>
<g>
</g>
<g>
</g>
<g>
</g>
<g>
</g>
<g>
</g>
</svg>
