<?xml version="1.0" encoding="iso-8859-1"?>
<!-- Generator: Adobe Illustrator 19.0.0, SVG Export Plug-In . SVG Version: 6.00 Build 0)  -->
<svg version="1.1" id="Layer_1" xmlns="http://www.w3.org/2000/svg" xmlns:xlink="http://www.w3.org/1999/xlink" x="0px" y="0px"
	 viewBox="0 0 495 495" style="enable-background:new 0 0 495 495;" xml:space="preserve">
<g>
	<polygon style="fill:#A258CD;" points="40,40 111,40 111,0 0,0 0,111 40,111 	"/>
	<polygon style="fill:#8034AD;" points="384,0 384,40 455,40 455,111 495,111 495,0 	"/>
	<rect x="202.16" style="fill:#A258CD;" width="45.5" height="40"/>
	<rect x="247.659" style="fill:#8034AD;" width="45.5" height="40"/>
	<rect x="202.16" y="455" style="fill:#A258CD;" width="45.5" height="40"/>
	<rect x="247.659" y="455" style="fill:#8034AD;" width="45.5" height="40"/>
	<polygon style="fill:#8034AD;" points="455,455 384,455 384,495 495,495 495,384 455,384 	"/>
	<rect x="455" y="202" style="fill:#8034AD;" width="40" height="91"/>
	<rect y="202" style="fill:#A258CD;" width="40" height="91"/>
	<polygon style="fill:#FFDE55;" points="239.929,255.071 197.474,212.616 34.853,375.237 119.763,460.146 77.308,417.691 
		239.929,255.071 282.384,297.526 239.929,255.071 	"/>
	
		<rect x="149.826" y="242.618" transform="matrix(-0.7071 -0.7071 0.7071 -0.7071 54.1485 737.646)" style="fill:#FFC477;" width="60.04" height="229.98"/>
	<polygon style="fill:#FFEB99;" points="0.575,494.424 119.763,460.146 34.853,375.237 	"/>
	<polygon style="fill:#D80027;" points="197.474,212.616 239.929,255.071 303.975,191.025 346.43,233.479 261.52,148.57 	"/>
	<polygon style="fill:#C70024;" points="239.929,255.071 239.929,255.071 282.384,297.526 346.43,233.479 303.975,191.025 	"/>
</g>
<g>
</g>
<g>
</g>
<g>
</g>
<g>
</g>
<g>
</g>
<g>
</g>
<g>
</g>
<g>
</g>
<g>
</g>
<g>
</g>
<g>
</g>
<g>
</g>
<g>
</g>
<g>
</g>
<g>
</g>
</svg>
