<?xml version="1.0" encoding="iso-8859-1"?>
<!-- Generator: Adobe Illustrator 19.0.0, SVG Export Plug-In . SVG Version: 6.00 Build 0)  -->
<svg version="1.1" id="Capa_1" xmlns="http://www.w3.org/2000/svg" xmlns:xlink="http://www.w3.org/1999/xlink" x="0px" y="0px"
	 viewBox="0 0 512.002 512.002" style="enable-background:new 0 0 512.002 512.002;" xml:space="preserve">
<path style="fill:#FF3333;" d="M256.001,0.001c-99.282,0-180.044,80.762-180.044,180.044c0,35.312,10.228,69.524,29.582,98.916
	l150.462,233.041l150.462-233.041c19.356-29.392,29.582-63.605,29.582-98.916C436.045,80.763,355.282,0.001,256.001,0.001z
	 M256.001,300.074c-66.183,0-120.029-53.846-120.029-120.029S189.818,60.016,256.001,60.016S376.03,113.862,376.03,180.045
	S322.184,300.074,256.001,300.074z"/>
<path style="fill:#CC0202;" d="M376.03,180.045c0,66.183-53.846,120.029-120.029,120.029v211.927L406.463,278.96
	c19.356-29.392,29.582-63.605,29.582-98.916C436.045,80.762,355.283,0,256.001,0v60.015
	C322.184,60.016,376.03,113.862,376.03,180.045z"/>
<polygon style="fill:#7986E8;" points="271.005,120.03 240.997,120.03 240.997,165.041 195.986,165.041 195.986,195.049 
	240.997,195.049 240.997,240.06 271.005,240.06 271.005,195.049 316.016,195.049 316.016,165.041 271.005,165.041 "/>
<polygon style="fill:#6E77E5;" points="271.005,120.03 256.001,120.03 256.001,240.06 271.005,240.06 271.005,195.049 
	316.016,195.049 316.016,165.041 271.005,165.041 "/>
<g>
</g>
<g>
</g>
<g>
</g>
<g>
</g>
<g>
</g>
<g>
</g>
<g>
</g>
<g>
</g>
<g>
</g>
<g>
</g>
<g>
</g>
<g>
</g>
<g>
</g>
<g>
</g>
<g>
</g>
</svg>
