<?xml version="1.0" encoding="iso-8859-1"?>
<!-- Generator: Adobe Illustrator 19.0.0, SVG Export Plug-In . SVG Version: 6.00 Build 0)  -->
<svg version="1.1" id="Capa_1" xmlns="http://www.w3.org/2000/svg" xmlns:xlink="http://www.w3.org/1999/xlink" x="0px" y="0px"
	 viewBox="0 0 512 512" style="enable-background:new 0 0 512 512;" xml:space="preserve">
<path style="fill:#66BD21;" d="M333.621,284.595L227.405,178.379L342.132,63.666l106.202,106.202L333.621,284.595z"/>
<polygon style="fill:#5DAD1D;" points="333.621,284.595 448.334,169.868 395.233,116.767 280.512,231.488 "/>
<path style="fill:#6ECD24;" d="M448.51,212.053L299.947,63.49L363.452,0L512,148.548L448.51,212.053z"/>
<path style="fill:#E1E4FB;" d="M63.563,512H0v-63.563l163.65-163.665l63.578,63.578L63.563,512z"/>
<polygon style="fill:#C5C9F7;" points="2.097,512 63.563,512 227.228,348.349 195.439,316.561 2.097,509.903 "/>
<path style="fill:#6ECD24;" d="M290.953,454.537l-233.49-233.49l52.889-53.255c41.275-40.894,108.035-40.894,148.9-0.029
	l84.985,84.985c40.865,40.865,40.88,107.61,0.044,148.812L290.953,454.537z"/>
<g>
	<path style="fill:#66BD21;" d="M290.953,454.537l53.328-52.977c40.836-41.202,40.821-107.947-0.044-148.812l-42.492-42.492
		L174.208,337.792L290.953,454.537z"/>
	<polygon style="fill:#66BD21;" points="448.51,212.053 512,148.548 437.726,74.274 374.229,137.771 	"/>
</g>
<g>
</g>
<g>
</g>
<g>
</g>
<g>
</g>
<g>
</g>
<g>
</g>
<g>
</g>
<g>
</g>
<g>
</g>
<g>
</g>
<g>
</g>
<g>
</g>
<g>
</g>
<g>
</g>
<g>
</g>
</svg>
