<?xml version="1.0" encoding="iso-8859-1"?>
<!-- Generator: Adobe Illustrator 19.0.0, SVG Export Plug-In . SVG Version: 6.00 Build 0)  -->
<svg version="1.1" id="Capa_1" xmlns="http://www.w3.org/2000/svg" xmlns:xlink="http://www.w3.org/1999/xlink" x="0px" y="0px"
	 viewBox="0 0 512 512" style="enable-background:new 0 0 512 512;" xml:space="preserve">
<path style="fill:#4CE166;" d="M511.426,500.428l-73.805-177.331c-1.16-2.788-3.884-4.604-6.904-4.604H81.282
	c-3.02,0-5.744,1.817-6.904,4.604L0.575,500.428c-0.961,2.307-0.705,4.943,0.683,7.022c1.387,2.08,3.721,3.329,6.221,3.329h497.044
	c2.5,0,4.835-1.249,6.221-3.329C512.131,505.372,512.386,502.735,511.426,500.428z"/>
<path style="fill:#44C868;" d="M480.714,510.78h23.808c2.5,0,4.835-1.249,6.221-3.329c1.388-2.079,1.643-4.715,0.683-7.022
	L437.62,323.098c-1.16-2.788-3.884-4.604-6.904-4.604h-30.031L480.714,510.78z"/>
<g>
	<path style="fill:#FFDB56;" d="M303.02,389.697c-12.681-5.169-29.381-8.014-47.023-8.014s-34.341,2.847-47.023,8.014
		c-14.809,6.036-22.964,14.893-22.964,24.939c0,10.046,8.156,18.903,22.964,24.938c12.681,5.169,29.382,8.014,47.023,8.014
		s34.341-2.847,47.023-8.014c14.809-6.035,22.964-14.891,22.964-24.938C325.984,404.59,317.829,395.733,303.02,389.697z"/>
	<path style="fill:#FFDB56;" d="M452.797,359.561h-4.981c-0.03,0-0.06,0-0.09,0c-37.73,0-67.053,19.82-79.877,30.256
		c-15.98-21.175-52.171-36.497-97.506-39.289c-4.122-0.255-7.669,2.882-7.923,7.003c-0.254,4.122,2.882,7.669,7.003,7.923
		c44.062,2.715,79.994,18.76,89.736,38.508c0.131,0.344,0.288,0.678,0.472,1.003c1.402,3.148,2.146,6.384,2.146,9.671
		c0,17.197-21.169,34.082-53.932,43.014c-3.984,1.087-6.334,5.198-5.249,9.182c0.907,3.326,3.921,5.513,7.21,5.513
		c0.651,0,1.313-0.086,1.971-0.265c40.065-10.924,64.954-32.935,64.954-57.443c0-3.85-0.603-7.613-1.753-11.267
		c9.475-8.108,37.195-28.853,72.753-28.853c0.024,0,0.053,0,0.077,0h11.212L452.797,359.561z"/>
	<path style="fill:#FFDB56;" d="M23.883,461.139c0.191,0.114,0.388,0.219,0.588,0.314c0.692,0.332,17.252,8.152,42.069,10.182
		c3.537,0.289,7.351,0.465,11.405,0.465c20.919,0,48.176-4.681,75.977-22.523c21.227,17.931,58.63,29.606,102.075,29.606
		c4.13,0,7.478-3.347,7.478-7.478s-3.348-7.478-7.478-7.478c-29.106,0-56.353-5.652-76.72-15.915
		c-18.467-9.306-29.059-21.581-29.059-33.676c0-15.579,17.488-31.099,45.639-40.505c3.917-1.309,6.031-5.545,4.722-9.462
		c-1.309-3.916-5.544-6.032-9.462-4.722c-34.975,11.685-55.855,32.13-55.855,54.69c0,8.467,2.903,16.505,8.217,23.851
		c-23.083,14.205-48.307,20.357-75.119,18.29c-20.659-1.593-35.126-7.78-37.177-8.698l-7.071-4.2l-5.805,13.947L23.883,461.139z"/>
	<path style="fill:#FFDB56;" d="M471.811,405.247l-4.066,7.82c-2.348,4.518-5.261,8.71-8.693,12.471
		c-18.077,19.813-77.667,74.897-185.318,80.298c-3.107,0.156-5.674,2.188-6.664,4.943h73.164
		c38.318-10.007,67.499-25.542,87.505-39.035c32.955-22.224,48.707-43.537,49.361-44.434c0.222-0.305,0.421-0.626,0.595-0.96
		l1.61-3.098L471.811,405.247z"/>
	<path style="fill:#FFDB56;" d="M61.273,388.055c6.495,0,22.566-0.606,41.786-5.757c32.773-8.785,59.176-26.77,76.365-52.007
		c0.013-0.018,0.026-0.035,0.038-0.053c0.015-0.022,0.031-0.042,0.046-0.064c0.172-0.254,0.321-0.516,0.459-0.783
		c0.01-0.02,0.024-0.037,0.034-0.057l5.459-10.841h-16.744l-1.818,3.608c-15.274,22.304-37.895,37.658-67.257,45.628
		c-22.421,6.085-40.535,5.341-40.706,5.332c-0.125-0.006-0.259-0.016-0.372-0.009l-4.979,0.007l-6.229,14.965l11.064-0.016
		C58.841,388.025,59.815,388.055,61.273,388.055z"/>
</g>
<g>
	<path style="fill:#FFBB24;" d="M447.816,359.561c-0.03,0-0.06,0-0.09,0c-10.126,0-19.639,1.437-28.398,3.727l5.819,13.98
		c7.059-1.705,14.624-2.751,22.586-2.751c0.024,0,0.053,0,0.077,0h11.212l-6.225-14.956H447.816z"/>
	<path style="fill:#FFBB24;" d="M471.811,405.247l-4.066,7.82c-2.348,4.518-5.261,8.71-8.693,12.471
		c-2.462,2.698-5.699,6.054-9.718,9.846l6.145,14.763c14.18-12.764,21.189-22.245,21.621-22.836c0.222-0.305,0.421-0.626,0.595-0.96
		l1.61-3.098L471.811,405.247z"/>
</g>
<path style="fill:#FF4A4A;" d="M471.577,119.37L272.835,33.981c-2.31-0.993-4.964-0.758-7.065,0.626
	c-2.1,1.384-3.364,3.73-3.364,6.245v170.78c0,2.515,1.264,4.861,3.364,6.245c1.24,0.817,2.673,1.233,4.114,1.233
	c1,0,2.005-0.2,2.951-0.607l198.741-85.391c2.746-1.18,4.526-3.882,4.526-6.871C476.103,123.252,474.324,120.551,471.577,119.37z"/>
<path style="fill:#E7343F;" d="M296.805,44.278L272.835,33.98c-2.31-0.993-4.964-0.758-7.065,0.626
	c-2.1,1.384-3.364,3.73-3.364,6.245v170.78c0,2.515,1.264,4.861,3.364,6.245c1.24,0.817,2.673,1.233,4.114,1.233
	c1,0,2.005-0.2,2.951-0.607l23.969-10.299V44.278z"/>
<path style="fill:#FFDB56;" d="M255.908,1.22h-0.198c-11.83,0-21.455,9.625-21.455,21.455v382.684
	c0,11.83,9.625,21.455,21.455,21.455h0.198c11.83,0,21.455-9.625,21.455-21.455V22.675C277.362,10.845,267.738,1.22,255.908,1.22z"
	/>
<path style="fill:#FFBB24;" d="M257.415,1.297v425.441c11.126-0.78,19.947-10.057,19.947-21.378V22.675
	C277.362,11.353,268.541,2.076,257.415,1.297z"/>
<g>
</g>
<g>
</g>
<g>
</g>
<g>
</g>
<g>
</g>
<g>
</g>
<g>
</g>
<g>
</g>
<g>
</g>
<g>
</g>
<g>
</g>
<g>
</g>
<g>
</g>
<g>
</g>
<g>
</g>
</svg>
